<svg xmlns="http://www.w3.org/2000/svg" width="750" height="600" fill="none" viewBox="0 0 750 600"><g clip-path="url(#clip0)"><rect width="750" height="600" fill="#fff"/><path fill="#4608AD" d="M318.75 494H431.25C432.908 494 434.497 494.658 435.669 495.831C436.842 497.003 437.5 498.592 437.5 500.25V569C437.5 570.658 436.842 572.247 435.669 573.419C434.497 574.592 432.908 575.25 431.25 575.25H437.5L450 594V600.25H300V594L312.5 575.25H318.75C317.092 575.25 315.503 574.592 314.331 573.419C313.158 572.247 312.5 570.658 312.5 569V500.25C312.5 498.592 313.158 497.003 314.331 495.831C315.503 494.658 317.092 494 318.75 494V494ZM325 506.5V562.75H425V506.5H325Z"/><path fill="#4608AD" fill-opacity=".5" d="M375 222.5L389.434 197.5H360.566L375 222.5ZM62.5 123V125.5H67.5V123H62.5ZM62.5 130.5V133H67.5V130.5H62.5ZM62.5 133C62.5 133.858 62.5333 134.708 62.5987 135.55L67.5836 135.162C67.5283 134.449 67.5 133.728 67.5 133H62.5ZM63.3912 140.588C63.7911 142.26 64.3202 143.881 64.9671 145.441L69.5857 143.526C69.039 142.207 68.5919 140.837 68.2539 139.425L63.3912 140.588ZM67.2866 149.985C68.1796 151.439 69.1837 152.818 70.287 154.108L74.0875 150.859C73.1531 149.766 72.303 148.599 71.5473 147.369L67.2866 149.985ZM73.8918 157.713C75.1824 158.816 76.5607 159.82 78.015 160.713L80.6315 156.453C79.4008 155.697 78.2339 154.847 77.1408 153.912L73.8918 157.713ZM82.5587 163.033C84.1188 163.68 85.7403 164.209 87.4119 164.609L88.5753 159.746C87.1627 159.408 85.7925 158.961 84.474 158.414L82.5587 163.033ZM92.4503 165.401C93.2921 165.467 94.1424 165.5 95 165.5V160.5C94.2718 160.5 93.5506 160.472 92.8375 160.416L92.4503 165.401ZM95 165.5H97.5V160.5H95V165.5ZM102.5 165.5H107.5V160.5H102.5V165.5ZM112.5 165.5H117.5V160.5H112.5V165.5ZM122.5 165.5H127.5V160.5H122.5V165.5ZM132.5 165.5H137.5V160.5H132.5V165.5ZM142.5 165.5H147.5V160.5H142.5V165.5ZM152.5 165.5H157.5V160.5H152.5V165.5ZM162.5 165.5H167.5V160.5H162.5V165.5ZM172.5 165.5H177.5V160.5H172.5V165.5ZM182.5 165.5H187.5V160.5H182.5V165.5ZM192.5 165.5H197.5V160.5H192.5V165.5ZM202.5 165.5H207.5V160.5H202.5V165.5ZM212.5 165.5H217.5V160.5H212.5V165.5ZM222.5 165.5H227.5V160.5H222.5V165.5ZM232.5 165.5H237.5V160.5H232.5V165.5ZM242.5 165.5H247.5V160.5H242.5V165.5ZM252.5 165.5H257.5V160.5H252.5V165.5ZM262.5 165.5H267.5V160.5H262.5V165.5ZM272.5 165.5H277.5V160.5H272.5V165.5ZM282.5 165.5H287.5V160.5H282.5V165.5ZM292.5 165.5H297.5V160.5H292.5V165.5ZM302.5 165.5H307.5V160.5H302.5V165.5ZM312.5 165.5H317.5V160.5H312.5V165.5ZM322.5 165.5H327.5V160.5H322.5V165.5ZM332.5 165.5H337.5V160.5H332.5V165.5ZM342.5 165.5H345V160.5H342.5V165.5ZM345 165.5C345.728 165.5 346.449 165.528 347.162 165.584L347.55 160.599C346.708 160.533 345.858 160.5 345 160.5V165.5ZM351.425 166.254C352.837 166.592 354.207 167.039 355.526 167.586L357.441 162.967C355.881 162.32 354.26 161.791 352.588 161.391L351.425 166.254ZM359.369 169.547C360.599 170.303 361.766 171.153 362.859 172.088L366.108 168.287C364.818 167.184 363.439 166.18 361.985 165.287L359.369 169.547ZM365.912 175.141C366.847 176.234 367.697 177.401 368.453 178.631L372.713 176.015C371.82 174.561 370.816 173.182 369.713 171.892L365.912 175.141ZM370.414 182.474C370.961 183.793 371.408 185.163 371.746 186.575L376.609 185.412C376.209 183.74 375.68 182.119 375.033 180.559L370.414 182.474ZM372.416 190.838C372.472 191.551 372.5 192.272 372.5 193H377.5C377.5 192.142 377.467 191.292 377.401 190.45L372.416 190.838ZM372.5 193V195.458H377.5V193H372.5ZM372.5 200.375V205.292H377.5V200.375H372.5ZM372.5 210.208V215.125H377.5V210.208H372.5Z"/><path fill="#4608AD" d="M418.75 337.5H337.5C330.87 337.5 324.511 334.866 319.822 330.178C315.134 325.489 312.5 319.13 312.5 312.5C312.5 305.87 315.134 299.511 319.822 294.822C324.511 290.134 330.87 287.5 337.5 287.5H341.938C346.062 273.063 359.375 262.5 375 262.5C384.117 262.5 392.86 266.122 399.307 272.568C405.753 279.015 409.375 287.758 409.375 296.875V300H418.75C423.723 300 428.492 301.975 432.008 305.492C435.525 309.008 437.5 313.777 437.5 318.75C437.5 323.723 435.525 328.492 432.008 332.008C428.492 335.525 423.723 337.5 418.75 337.5ZM420.938 287.687C416.688 266.187 397.75 250 375 250C356.938 250 341.25 260.25 333.438 275.187C314.625 277.25 300 293.125 300 312.5C300 322.446 303.951 331.984 310.983 339.017C318.016 346.049 327.554 350 337.5 350H418.75C422.854 350 426.917 349.192 430.709 347.621C434.5 346.051 437.945 343.749 440.847 340.847C443.749 337.945 446.051 334.5 447.621 330.709C449.192 326.917 450 322.854 450 318.75C450 302.25 437.187 288.875 420.938 287.687Z"/><path fill="#4608AD" fill-opacity=".5" d="M375 462.5L389.434 437.5H360.566L375 462.5ZM372.5 381V383.547H377.5V381H372.5ZM372.5 388.641V393.734H377.5V388.641H372.5ZM372.5 398.828V403.922H377.5V398.828H372.5ZM372.5 409.016V414.109H377.5V409.016H372.5ZM372.5 419.203V424.297H377.5V419.203H372.5ZM372.5 429.391V434.484H377.5V429.391H372.5ZM372.5 439.578V444.672H377.5V439.578H372.5ZM372.5 449.766V454.859H377.5V449.766H372.5Z"/><rect width="124" height="98" x="3" y="3" fill="#fff" stroke="#4608AD" stroke-width="6" rx="7"/><path fill="#4608AD" fill-opacity=".25" d="M0 10C0 4.47715 4.47715 0 10 0H115C120.523 0 125 4.47715 125 10V25H0V10Z"/><rect width="124" height="98" x="315" y="3" fill="#fff" stroke="#4608AD" stroke-width="6" rx="7"/><path fill="#4608AD" fill-opacity=".25" d="M312 10C312 4.47715 316.477 0 322 0H427C432.523 0 437 4.47715 437 10V25H312V10Z"/><rect width="124" height="98" x="623" y="3" fill="#fff" stroke="#4608AD" stroke-width="6" rx="7"/><path fill="#4608AD" fill-opacity=".25" d="M620 10C620 4.47715 624.477 0 630 0H735C740.523 0 745 4.47715 745 10V25H620V10Z"/></g><defs><clipPath id="clip0"><rect width="750" height="600" fill="#fff"/></clipPath></defs></svg>