<svg width="750" height="600" viewBox="0 0 750 600" fill="none" xmlns="http://www.w3.org/2000/svg">
<rect width="750" height="600" fill="white"/>
<path d="M418.75 478.5H337.5C330.87 478.5 324.511 475.866 319.822 471.178C315.134 466.489 312.5 460.13 312.5 453.5C312.5 446.87 315.134 440.511 319.822 435.822C324.511 431.134 330.87 428.5 337.5 428.5H341.938C346.062 414.063 359.375 403.5 375 403.5C384.117 403.5 392.86 407.122 399.307 413.568C405.753 420.015 409.375 428.758 409.375 437.875V441H418.75C423.723 441 428.492 442.975 432.008 446.492C435.525 450.008 437.5 454.777 437.5 459.75C437.5 464.723 435.525 469.492 432.008 473.008C428.492 476.525 423.723 478.5 418.75 478.5ZM420.938 428.687C416.688 407.187 397.75 391 375 391C356.938 391 341.25 401.25 333.438 416.187C314.625 418.25 300 434.125 300 453.5C300 463.446 303.951 472.984 310.983 480.017C318.016 487.049 327.554 491 337.5 491H418.75C422.854 491 426.917 490.192 430.709 488.621C434.5 487.051 437.945 484.749 440.847 481.847C443.749 478.945 446.051 475.5 447.621 471.709C449.192 467.917 450 463.854 450 459.75C450 443.25 437.187 429.875 420.938 428.687Z" fill="#4608AD"/>
<path d="M268 441L243 426.566V455.434L268 441ZM134 443.5H136.577V438.5H134V443.5ZM141.731 443.5H146.885V438.5H141.731V443.5ZM152.038 443.5H157.192V438.5H152.038V443.5ZM162.346 443.5H167.5V438.5H162.346V443.5ZM172.654 443.5H177.808V438.5H172.654V443.5ZM182.962 443.5H188.115V438.5H182.962V443.5ZM193.269 443.5H198.423V438.5H193.269V443.5ZM203.577 443.5H208.731V438.5H203.577V443.5ZM213.885 443.5H219.038V438.5H213.885V443.5ZM224.192 443.5H229.346V438.5H224.192V443.5ZM234.5 443.5H239.654V438.5H234.5V443.5ZM244.808 443.5H249.962V438.5H244.808V443.5ZM255.115 443.5H260.269V438.5H255.115V443.5Z" fill="#A283D6"/>
<path d="M617 441L592 426.566V455.434L617 441ZM483 443.5H485.577V438.5H483V443.5ZM490.731 443.5H495.885V438.5H490.731V443.5ZM501.038 443.5H506.192V438.5H501.038V443.5ZM511.346 443.5H516.5V438.5H511.346V443.5ZM521.654 443.5H526.808V438.5H521.654V443.5ZM531.962 443.5H537.115V438.5H531.962V443.5ZM542.269 443.5H547.423V438.5H542.269V443.5ZM552.577 443.5H557.731V438.5H552.577V443.5ZM562.885 443.5H568.038V438.5H562.885V443.5ZM573.192 443.5H578.346V438.5H573.192V443.5ZM583.5 443.5H588.654V438.5H583.5V443.5ZM593.808 443.5H598.962V438.5H593.808V443.5ZM604.115 443.5H609.269V438.5H604.115V443.5Z" fill="#A283D6"/>
<path d="M62.5 378H12.5C9.18479 378 6.00537 379.317 3.66116 381.661C1.31696 384.005 0 387.185 0 390.5V490.5C0 493.815 1.31696 496.995 3.66116 499.339C6.00537 501.683 9.18479 503 12.5 503H87.5C90.8152 503 93.9946 501.683 96.3388 499.339C98.683 496.995 100 493.815 100 490.5V415.5L62.5 378ZM87.5 490.5H12.5V390.5H56.25V421.75H87.5V490.5Z" fill="#4608AD"/>
<path d="M712.5 378H662.5C659.185 378 656.005 379.317 653.661 381.661C651.317 384.005 650 387.185 650 390.5V490.5C650 493.815 651.317 496.995 653.661 499.339C656.005 501.683 659.185 503 662.5 503H737.5C740.815 503 743.995 501.683 746.339 499.339C748.683 496.995 750 493.815 750 490.5V415.5L712.5 378ZM737.5 490.5H662.5V390.5H706.25V421.75H737.5V490.5ZM687.5 446.75H668.75V434.25H687.5V446.75ZM712.5 446.75H693.75V434.25H712.5V446.75ZM687.5 465.5H668.75V453H687.5V465.5ZM712.5 465.5H693.75V453H712.5V465.5ZM687.5 484.25H668.75V471.75H687.5V484.25ZM712.5 484.25H693.75V471.75H712.5V484.25Z" fill="#4608AD"/>
<rect x="315" y="100" width="124" height="98" rx="7" fill="white" stroke="#4608AD" stroke-width="6"/>
<path d="M312 107C312 101.477 316.477 97 322 97H427C432.523 97 437 101.477 437 107V122H312V107Z" fill="#4608AD" fill-opacity="0.25"/>
<rect x="538" y="100" width="124" height="98" rx="7" fill="white" stroke="#4608AD" stroke-width="6"/>
<path d="M535 107C535 101.477 539.477 97 545 97H650C655.523 97 660 101.477 660 107V122H535V107Z" fill="#4608AD" fill-opacity="0.25"/>
<rect x="92" y="100" width="124" height="98" rx="7" fill="white" stroke="#4608AD" stroke-width="6"/>
<path d="M89 107C89 101.477 93.4772 97 99 97H204C209.523 97 214 101.477 214 107V122H89V107Z" fill="#4608AD" fill-opacity="0.25"/>
<path d="M373.5 355.5L387.934 330.5H359.066L373.5 355.5ZM153 231V233.75H158V231H153ZM153 239.25V244.75H158V239.25H153ZM153 250.25V253H158V250.25H153ZM153 253C153 253.858 153.033 254.708 153.099 255.55L158.084 255.162C158.028 254.449 158 253.728 158 253H153ZM153.891 260.588C154.291 262.26 154.82 263.881 155.467 265.441L160.086 263.526C159.539 262.207 159.092 260.837 158.754 259.425L153.891 260.588ZM157.787 269.985C158.68 271.439 159.684 272.818 160.787 274.108L164.588 270.859C163.653 269.766 162.803 268.599 162.047 267.369L157.787 269.985ZM164.392 277.713C165.682 278.816 167.061 279.82 168.515 280.713L171.131 276.453C169.901 275.697 168.734 274.847 167.641 273.912L164.392 277.713ZM173.059 283.033C174.619 283.68 176.24 284.209 177.912 284.609L179.075 279.746C177.663 279.408 176.293 278.961 174.974 278.414L173.059 283.033ZM182.95 285.401C183.792 285.467 184.642 285.5 185.5 285.5V280.5C184.772 280.5 184.051 280.472 183.338 280.416L182.95 285.401ZM185.5 285.5H187.969V280.5H185.5V285.5ZM192.906 285.5H197.844V280.5H192.906V285.5ZM202.781 285.5H207.719V280.5H202.781V285.5ZM212.656 285.5H217.594V280.5H212.656V285.5ZM222.531 285.5H227.469V280.5H222.531V285.5ZM232.406 285.5H237.344V280.5H232.406V285.5ZM242.281 285.5H247.219V280.5H242.281V285.5ZM252.156 285.5H257.094V280.5H252.156V285.5ZM262.031 285.5H266.969V280.5H262.031V285.5ZM271.906 285.5H276.844V280.5H271.906V285.5ZM281.781 285.5H286.719V280.5H281.781V285.5ZM291.656 285.5H296.594V280.5H291.656V285.5ZM301.531 285.5H306.469V280.5H301.531V285.5ZM311.406 285.5H316.344V280.5H311.406V285.5ZM321.281 285.5H326.219V280.5H321.281V285.5ZM331.156 285.5H336.094V280.5H331.156V285.5ZM341.031 285.5H343.5V280.5H341.031V285.5ZM343.5 285.5C344.228 285.5 344.949 285.528 345.662 285.584L346.05 280.599C345.208 280.533 344.358 280.5 343.5 280.5V285.5ZM349.925 286.254C351.337 286.592 352.707 287.039 354.026 287.586L355.941 282.967C354.381 282.32 352.76 281.791 351.088 281.391L349.925 286.254ZM357.869 289.547C359.099 290.303 360.266 291.153 361.359 292.088L364.608 288.287C363.318 287.184 361.939 286.18 360.485 285.287L357.869 289.547ZM364.412 295.141C365.347 296.234 366.197 297.401 366.953 298.631L371.213 296.015C370.32 294.561 369.316 293.182 368.213 291.892L364.412 295.141ZM368.914 302.474C369.461 303.793 369.908 305.163 370.246 306.575L375.109 305.412C374.709 303.74 374.18 302.119 373.533 300.559L368.914 302.474ZM370.916 310.838C370.972 311.551 371 312.272 371 313H376C376 312.142 375.967 311.292 375.901 310.45L370.916 310.838ZM371 313V315.656H376V313H371ZM371 320.969V326.281H376V320.969H371ZM371 331.594V336.906H376V331.594H371ZM371 342.219V347.531H376V342.219H371Z" fill="#A283D6"/>
</svg>
