<svg xmlns="http://www.w3.org/2000/svg" width="750" height="600" fill="none" viewBox="0 0 750 600"><rect width="750" height="600" fill="#fff"/><rect width="124" height="98" x="162" y="3" fill="#fff" stroke="#4608AD" stroke-width="6" rx="7"/><path fill="#4608AD" fill-opacity=".25" d="M159 10C159 4.47715 163.477 0 169 0H274C279.523 0 284 4.47715 284 10V25H159V10Z"/><rect width="124" height="98" x="162" y="499" fill="#fff" stroke="#4608AD" stroke-width="6" rx="7"/><path fill="#4608AD" fill-opacity=".25" d="M159 506C159 500.477 163.477 496 169 496H274C279.523 496 284 500.477 284 506V521H159V506Z"/><rect width="124" height="98" x="162" y="251" fill="#fff" stroke="#4608AD" stroke-width="6" rx="7"/><path fill="#4608AD" fill-opacity=".25" d="M159 258C159 252.477 163.477 248 169 248H274C279.523 248 284 252.477 284 258V273H159V258Z"/><path fill="#4608AD" d="M552.5 237H502.5C499.185 237 496.005 238.317 493.661 240.661C491.317 243.005 490 246.185 490 249.5V349.5C490 352.815 491.317 355.995 493.661 358.339C496.005 360.683 499.185 362 502.5 362H577.5C580.815 362 583.995 360.683 586.339 358.339C588.683 355.995 590 352.815 590 349.5V274.5L552.5 237ZM577.5 349.5H502.5V249.5H546.25V280.75H577.5V349.5ZM527.5 305.75H508.75V293.25H527.5V305.75ZM552.5 305.75H533.75V293.25H552.5V305.75ZM527.5 324.5H508.75V312H527.5V324.5ZM552.5 324.5H533.75V312H552.5V324.5ZM527.5 343.25H508.75V330.75H527.5V343.25ZM552.5 343.25H533.75V330.75H552.5V343.25Z"/><path fill="#A283D6" d="M466.5 297L441.5 282.566V311.434L466.5 297ZM319 64H321.875V59H319V64ZM327.625 64H333.375V59H327.625V64ZM339.125 64H342V59H339.125V64ZM342 64C342.728 64 343.449 64.0283 344.162 64.0836L344.55 59.0987C343.708 59.0333 342.858 59 342 59V64ZM348.425 64.7539C349.837 65.0919 351.207 65.539 352.526 66.0857L354.441 61.4671C352.881 60.8202 351.26 60.2911 349.588 59.8912L348.425 64.7539ZM356.369 68.0473C357.599 68.803 358.766 69.6531 359.859 70.5875L363.108 66.787C361.818 65.6837 360.439 64.6796 358.985 63.7866L356.369 68.0473ZM362.912 73.6408C363.847 74.7339 364.697 75.9008 365.453 77.1315L369.713 74.515C368.82 73.0607 367.816 71.6824 366.713 70.3918L362.912 73.6408ZM367.414 80.974C367.961 82.2925 368.408 83.6627 368.746 85.0753L373.609 83.9119C373.209 82.2403 372.68 80.6188 372.033 79.0587L367.414 80.974ZM369.416 89.3375C369.472 90.0506 369.5 90.7718 369.5 91.5H374.5C374.5 90.6424 374.467 89.7921 374.401 88.9503L369.416 89.3375ZM369.5 91.5V93.9375H374.5V91.5H369.5ZM369.5 98.8125V103.688H374.5V98.8125H369.5ZM369.5 108.563V113.438H374.5V108.563H369.5ZM369.5 118.313V123.187H374.5V118.313H369.5ZM369.5 128.062V132.937H374.5V128.062H369.5ZM369.5 137.813V142.687H374.5V137.813H369.5ZM369.5 147.563V152.437H374.5V147.563H369.5ZM369.5 157.313V162.188H374.5V157.313H369.5ZM369.5 167.062V171.938H374.5V167.062H369.5ZM369.5 176.812V181.688H374.5V176.812H369.5ZM369.5 186.563V191.437H374.5V186.563H369.5ZM369.5 196.312V201.187H374.5V196.312H369.5ZM369.5 206.063V210.938H374.5V206.063H369.5ZM369.5 215.812V220.687H374.5V215.812H369.5ZM369.5 225.563V230.438H374.5V225.563H369.5ZM369.5 235.312V240.187H374.5V235.312H369.5ZM369.5 245.062V249.938H374.5V245.062H369.5ZM369.5 254.813V259.687H374.5V254.813H369.5ZM369.5 264.562V267H374.5V264.562H369.5ZM369.5 267C369.5 267.858 369.533 268.708 369.599 269.55L374.584 269.162C374.528 268.449 374.5 267.728 374.5 267H369.5ZM370.391 274.588C370.791 276.26 371.32 277.881 371.967 279.441L376.586 277.526C376.039 276.207 375.592 274.837 375.254 273.425L370.391 274.588ZM374.287 283.985C375.18 285.439 376.184 286.818 377.287 288.108L381.088 284.859C380.153 283.766 379.303 282.599 378.547 281.369L374.287 283.985ZM380.892 291.713C382.182 292.816 383.561 293.82 385.015 294.713L387.631 290.453C386.401 289.697 385.234 288.847 384.141 287.912L380.892 291.713ZM389.559 297.033C391.119 297.68 392.74 298.209 394.412 298.609L395.575 293.746C394.163 293.408 392.793 292.961 391.474 292.414L389.559 297.033ZM399.45 299.401C400.292 299.467 401.142 299.5 402 299.5V294.5C401.272 294.5 400.551 294.472 399.838 294.416L399.45 299.401ZM402 299.5H404.688V294.5H402V299.5ZM410.063 299.5H415.438V294.5H410.063V299.5ZM420.813 299.5H426.188V294.5H420.813V299.5ZM431.563 299.5H436.938V294.5H431.563V299.5ZM442.313 299.5H447.687V294.5H442.313V299.5ZM453.063 299.5H458.438V294.5H453.063V299.5Z"/><path fill="#A283D6" d="M466.5 297L441.5 311.434V282.566L466.5 297ZM319 545.5H321.875V550.5H319V545.5ZM327.625 545.5H333.375V550.5H327.625V545.5ZM339.125 545.5H342V550.5H339.125V545.5ZM342 545.5C342.728 545.5 343.449 545.472 344.162 545.416L344.55 550.401C343.708 550.467 342.858 550.5 342 550.5V545.5ZM348.425 544.746C349.837 544.408 351.207 543.961 352.526 543.414L354.441 548.033C352.881 548.68 351.26 549.209 349.588 549.609L348.425 544.746ZM356.369 541.453C357.599 540.697 358.766 539.847 359.859 538.912L363.108 542.713C361.818 543.816 360.439 544.82 358.985 545.713L356.369 541.453ZM362.912 535.859C363.847 534.766 364.697 533.599 365.453 532.369L369.713 534.985C368.82 536.439 367.816 537.818 366.713 539.108L362.912 535.859ZM367.414 528.526C367.961 527.207 368.408 525.837 368.746 524.425L373.609 525.588C373.209 527.26 372.68 528.881 372.033 530.441L367.414 528.526ZM369.416 520.162C369.472 519.449 369.5 518.728 369.5 518H374.5C374.5 518.858 374.467 519.708 374.401 520.55L369.416 520.162ZM369.5 518V515.487H374.5V518H369.5ZM369.5 510.461V505.434H374.5V510.461H369.5ZM369.5 500.408V495.382H374.5V500.408H369.5ZM369.5 490.355V485.329H374.5V490.355H369.5ZM369.5 480.303V475.276H374.5V480.303H369.5ZM369.5 470.25V465.224H374.5V470.25H369.5ZM369.5 460.197V455.171H374.5V460.197H369.5ZM369.5 450.145V445.118H374.5V450.145H369.5ZM369.5 440.092V435.066H374.5V440.092H369.5ZM369.5 430.039V425.013H374.5V430.039H369.5ZM369.5 419.987V414.961H374.5V419.987H369.5ZM369.5 409.934V404.908H374.5V409.934H369.5ZM369.5 399.882V394.855H374.5V399.882H369.5ZM369.5 389.829V384.803H374.5V389.829H369.5ZM369.5 379.776V374.75H374.5V379.776H369.5ZM369.5 369.724V364.697H374.5V369.724H369.5ZM369.5 359.671V354.645H374.5V359.671H369.5ZM369.5 349.618V344.592H374.5V349.618H369.5ZM369.5 339.566V334.539H374.5V339.566H369.5ZM369.5 329.513V327H374.5V329.513H369.5ZM369.5 327C369.5 326.142 369.533 325.292 369.599 324.45L374.584 324.838C374.528 325.551 374.5 326.272 374.5 327H369.5ZM370.391 319.412C370.791 317.74 371.32 316.119 371.967 314.559L376.586 316.474C376.039 317.793 375.592 319.163 375.254 320.575L370.391 319.412ZM374.287 310.015C375.18 308.561 376.184 307.182 377.287 305.892L381.088 309.141C380.153 310.234 379.303 311.401 378.547 312.631L374.287 310.015ZM380.892 302.287C382.182 301.184 383.561 300.18 385.015 299.287L387.631 303.547C386.401 304.303 385.234 305.153 384.141 306.088L380.892 302.287ZM389.559 296.967C391.119 296.32 392.74 295.791 394.412 295.391L395.575 300.254C394.163 300.592 392.793 301.039 391.474 301.586L389.559 296.967ZM399.45 294.599C400.292 294.533 401.142 294.5 402 294.5V299.5C401.272 299.5 400.551 299.528 399.838 299.584L399.45 294.599ZM402 294.5H404.688V299.5H402V294.5ZM410.063 294.5H415.438V299.5H410.063V294.5ZM420.813 294.5H426.188V299.5H420.813V294.5ZM431.563 294.5H436.938V299.5H431.563V294.5ZM442.313 294.5H447.687V299.5H442.313V294.5ZM453.063 294.5H458.438V299.5H453.063V294.5Z"/></svg>