<svg width="750" height="600" viewBox="0 0 750 600" fill="none" xmlns="http://www.w3.org/2000/svg">
<path d="M0 10C0 4.47715 4.47715 0 10 0H740C745.523 0 750 4.47715 750 10V80H0V10Z" fill="#EEEEEE"/>
<path d="M3 76H747V597H3V76Z" stroke="#EEEEEE" stroke-width="6"/>
<path d="M106.667 38.1061V41.8939H130.909L119.798 52.3106L122.667 55L138.667 40L122.667 25L119.798 27.6894L130.909 38.1061H106.667Z" fill="#AAAAAA" fill-opacity="0.5"/>
<path d="M64 38.1061V41.8939H39.7576L50.8687 52.3106L48 55L32 40L48 25L50.8687 27.6894L39.7576 38.1061H64Z" fill="#AAAAAA"/>
<path d="M181.333 40C181.333 48.2833 188.498 55 197.333 55C201.582 55 205.653 53.4333 208.711 50.6667L206.044 48.1667C203.787 50.4167 200.64 51.6667 197.333 51.6667C186.24 51.6667 180.693 39.1 188.533 31.75C196.373 24.4 209.778 29.6167 209.778 40H204.444L211.556 46.6667H211.733L218.667 40H213.333C213.333 31.7167 206.169 25 197.333 25C188.498 25 181.333 31.7167 181.333 40Z" fill="#AAAAAA"/>
<rect x="261" y="15" width="326" height="51" rx="10" fill="white"/>
<path d="M702.8 47.5C703.861 47.5 704.878 47.8951 705.628 48.5984C706.378 49.3016 706.8 50.2554 706.8 51.25C706.8 52.2446 706.378 53.1984 705.628 53.9016C704.878 54.6049 703.861 55 702.8 55C701.739 55 700.722 54.6049 699.971 53.9016C699.221 53.1984 698.8 52.2446 698.8 51.25C698.8 50.2554 699.221 49.3016 699.971 48.5984C700.722 47.8951 701.739 47.5 702.8 47.5ZM702.8 36.25C703.861 36.25 704.878 36.6451 705.628 37.3484C706.378 38.0516 706.8 39.0054 706.8 40C706.8 40.9946 706.378 41.9484 705.628 42.6516C704.878 43.3549 703.861 43.75 702.8 43.75C701.739 43.75 700.722 43.3549 699.971 42.6516C699.221 41.9484 698.8 40.9946 698.8 40C698.8 39.0054 699.221 38.0516 699.971 37.3484C700.722 36.6451 701.739 36.25 702.8 36.25ZM702.8 25C703.861 25 704.878 25.3951 705.628 26.0983C706.378 26.8016 706.8 27.7554 706.8 28.75C706.8 29.7446 706.378 30.6984 705.628 31.4017C704.878 32.1049 703.861 32.5 702.8 32.5C701.739 32.5 700.722 32.1049 699.971 31.4017C699.221 30.6984 698.8 29.7446 698.8 28.75C698.8 27.7554 699.221 26.8016 699.971 26.0983C700.722 25.3951 701.739 25 702.8 25Z" fill="#AAAAAA"/>
<path fill-rule="evenodd" clip-rule="evenodd" d="M629.476 39.9454L624.134 43.3884L624.133 44.149L640.016 55L655.897 44.1496L655.898 43.3892L650.994 39.8784L629.476 39.9454Z" fill="#1C0172"/>
<path fill-rule="evenodd" clip-rule="evenodd" d="M640.016 25L624.134 35.8505L624.133 36.6111L640.016 47.4624L655.897 36.6117L655.898 35.851L640.016 25Z" fill="#4608AD"/>
<mask id="path-11-inside-1" fill="white">
<path fill-rule="evenodd" clip-rule="evenodd" d="M659.903 119.058H707V525H261V119.058H619.357L639.63 99L659.903 119.058Z"/>
</mask>
<path fill-rule="evenodd" clip-rule="evenodd" d="M659.903 119.058H707V525H261V119.058H619.357L639.63 99L659.903 119.058Z" fill="white"/>
<path d="M659.903 119.058L658.496 120.48L659.081 121.058H659.903V119.058ZM707 119.058H709V117.058H707V119.058ZM707 525V527H709V525H707ZM261 525H259V527H261V525ZM261 119.058V117.058H259V119.058H261ZM619.357 119.058V121.058H620.179L620.764 120.48L619.357 119.058ZM639.63 99L641.037 97.5783L639.63 96.1865L638.223 97.5783L639.63 99ZM659.903 121.058H707V117.058H659.903V121.058ZM705 119.058V525H709V119.058H705ZM707 523H261V527H707V523ZM263 525V119.058H259V525H263ZM261 121.058H619.357V117.058H261V121.058ZM620.764 120.48L641.037 100.422L638.223 97.5783L617.95 117.637L620.764 120.48ZM638.223 100.422L658.496 120.48L661.31 117.637L641.037 97.5783L638.223 100.422Z" fill="#4608AD" mask="url(#path-11-inside-1)"/>
<path d="M301.246 182V164.251H312.123V166.253H303.456V172.173H310.572V174.175H303.456V179.998H312.647V182H301.246ZM320.777 182.146C319.02 182.146 317.575 181.569 316.444 180.413C315.313 179.257 314.747 177.76 314.747 175.921C314.747 174.082 315.317 172.58 316.456 171.417C317.595 170.253 319.06 169.671 320.851 169.671C321.786 169.671 322.69 169.862 323.561 170.245C324.431 170.619 325.16 171.156 325.746 171.856L324.354 173.077C323.972 172.605 323.483 172.234 322.889 171.966C322.303 171.689 321.656 171.551 320.948 171.551C319.719 171.551 318.718 171.958 317.945 172.771C317.18 173.585 316.798 174.635 316.798 175.921C316.798 177.223 317.18 178.281 317.945 179.095C318.718 179.9 319.719 180.303 320.948 180.303C321.64 180.303 322.291 180.169 322.901 179.9C323.512 179.632 324.012 179.282 324.403 178.851L325.794 180.096C325.257 180.698 324.545 181.19 323.658 181.573C322.779 181.955 321.819 182.146 320.777 182.146ZM334.107 182.146C332.87 182.146 331.768 181.874 330.799 181.329C329.839 180.775 329.098 180.027 328.578 179.083C328.065 178.139 327.809 177.085 327.809 175.921C327.809 174.139 328.39 172.653 329.554 171.465C330.726 170.269 332.244 169.671 334.107 169.671C335.914 169.671 337.407 170.257 338.587 171.429C339.767 172.592 340.357 174.09 340.357 175.921C340.357 177.752 339.767 179.249 338.587 180.413C337.407 181.569 335.914 182.146 334.107 182.146ZM334.107 180.303C335.296 180.303 336.292 179.892 337.098 179.07C337.904 178.248 338.307 177.199 338.307 175.921C338.307 174.635 337.904 173.585 337.098 172.771C336.301 171.958 335.304 171.551 334.107 171.551C332.854 171.551 331.833 171.97 331.043 172.808C330.254 173.646 329.859 174.684 329.859 175.921C329.859 177.158 330.254 178.2 331.043 179.046C331.841 179.884 332.862 180.303 334.107 180.303ZM357.948 169.671C360.804 169.671 362.232 171.404 362.232 174.871V182H360.206V175.42C360.206 174.061 359.974 173.077 359.51 172.466C359.046 171.856 358.326 171.551 357.35 171.551C356.381 171.551 355.571 171.954 354.92 172.759C354.278 173.557 353.956 174.619 353.956 175.945V182H351.93V175.396C351.93 174.069 351.686 173.097 351.197 172.479C350.717 171.86 349.993 171.551 349.024 171.551C348.015 171.551 347.177 171.95 346.51 172.747C345.842 173.545 345.509 174.611 345.509 175.945V182H343.507V169.83H345.509V171.929H345.533C346.03 171.213 346.636 170.66 347.352 170.269C348.076 169.87 348.837 169.671 349.635 169.671C351.572 169.671 352.861 170.472 353.504 172.076H353.529C354.017 171.303 354.644 170.708 355.409 170.293C356.174 169.878 357.02 169.671 357.948 169.671ZM380.287 169.671C383.143 169.671 384.571 171.404 384.571 174.871V182H382.545V175.42C382.545 174.061 382.313 173.077 381.849 172.466C381.385 171.856 380.665 171.551 379.688 171.551C378.72 171.551 377.91 171.954 377.259 172.759C376.616 173.557 376.295 174.619 376.295 175.945V182H374.269V175.396C374.269 174.069 374.024 173.097 373.536 172.479C373.056 171.86 372.332 171.551 371.363 171.551C370.354 171.551 369.516 171.95 368.849 172.747C368.181 173.545 367.848 174.611 367.848 175.945V182H365.846V169.83H367.848V171.929H367.872C368.368 171.213 368.975 170.66 369.691 170.269C370.415 169.87 371.176 169.671 371.974 169.671C373.91 169.671 375.2 170.472 375.843 172.076H375.868C376.356 171.303 376.983 170.708 377.748 170.293C378.513 169.878 379.359 169.671 380.287 169.671ZM398.878 175.726C398.878 175.856 398.87 176.027 398.854 176.238L398.829 176.556H389.454C389.592 177.695 390.032 178.606 390.772 179.29C391.513 179.965 392.433 180.303 393.531 180.303C394.955 180.303 396.099 179.754 396.961 178.655L398.377 179.876C397.206 181.39 395.566 182.146 393.458 182.146C391.716 182.146 390.272 181.569 389.125 180.413C387.977 179.249 387.403 177.752 387.403 175.921C387.403 174.098 387.957 172.601 389.063 171.429C390.178 170.257 391.566 169.671 393.226 169.671C394.911 169.671 396.274 170.241 397.315 171.38C398.357 172.511 398.878 173.96 398.878 175.726ZM395.692 172.454C395.082 171.852 394.296 171.551 393.336 171.551C392.376 171.551 391.546 171.848 390.846 172.442C390.154 173.036 389.715 173.846 389.527 174.871H396.876C396.705 173.854 396.31 173.048 395.692 172.454ZM407.972 169.671C408.224 169.671 408.391 169.679 408.473 169.695V171.954C408.098 171.921 407.834 171.905 407.679 171.905C406.548 171.905 405.649 172.299 404.981 173.089C404.314 173.87 403.98 174.883 403.98 176.128V182H401.954V169.83H403.98V171.978H404.005C404.461 171.246 405.03 170.68 405.714 170.281C406.406 169.874 407.158 169.671 407.972 169.671ZM415.748 182.146C413.99 182.146 412.546 181.569 411.415 180.413C410.283 179.257 409.718 177.76 409.718 175.921C409.718 174.082 410.287 172.58 411.427 171.417C412.566 170.253 414.031 169.671 415.821 169.671C416.757 169.671 417.66 169.862 418.531 170.245C419.402 170.619 420.13 171.156 420.716 171.856L419.325 173.077C418.942 172.605 418.454 172.234 417.86 171.966C417.274 171.689 416.627 171.551 415.919 171.551C414.69 171.551 413.689 171.958 412.916 172.771C412.151 173.585 411.769 174.635 411.769 175.921C411.769 177.223 412.151 178.281 412.916 179.095C413.689 179.9 414.69 180.303 415.919 180.303C416.611 180.303 417.262 180.169 417.872 179.9C418.482 179.632 418.983 179.282 419.374 178.851L420.765 180.096C420.228 180.698 419.516 181.19 418.629 181.573C417.75 181.955 416.79 182.146 415.748 182.146ZM434.254 175.726C434.254 175.856 434.246 176.027 434.229 176.238L434.205 176.556H424.83C424.968 177.695 425.408 178.606 426.148 179.29C426.889 179.965 427.809 180.303 428.907 180.303C430.331 180.303 431.475 179.754 432.337 178.655L433.753 179.876C432.582 181.39 430.942 182.146 428.834 182.146C427.092 182.146 425.648 181.569 424.5 180.413C423.353 179.249 422.779 177.752 422.779 175.921C422.779 174.098 423.333 172.601 424.439 171.429C425.554 170.257 426.942 169.671 428.602 169.671C430.287 169.671 431.65 170.241 432.691 171.38C433.733 172.511 434.254 173.96 434.254 175.726ZM431.068 172.454C430.458 171.852 429.672 171.551 428.712 171.551C427.752 171.551 426.922 171.848 426.222 172.442C425.53 173.036 425.09 173.846 424.903 174.871H432.252C432.081 173.854 431.686 173.048 431.068 172.454Z" fill="#4608AD"/>
<path d="M313.075 304L311.5 299.679H303.578L302.003 304H299.696L306.422 286.251H308.595L315.37 304H313.075ZM304.273 297.774H310.804L307.545 288.9H307.496L304.273 297.774ZM324.439 291.671C325.799 291.671 326.869 292.098 327.65 292.953C328.431 293.807 328.822 295.081 328.822 296.773V304H326.795V297.347C326.795 295.996 326.535 295.028 326.014 294.442C325.493 293.848 324.761 293.551 323.817 293.551C322.653 293.551 321.725 293.941 321.034 294.723C320.342 295.496 319.996 296.562 319.996 297.921V304H317.97V291.83H319.996V293.954H320.021C320.533 293.229 321.172 292.668 321.937 292.269C322.71 291.87 323.544 291.671 324.439 291.671ZM341.92 291.83H343.946V304H341.993V302.071H341.969C341.472 302.73 340.858 303.243 340.125 303.609C339.393 303.967 338.591 304.146 337.721 304.146C336.004 304.146 334.575 303.581 333.436 302.45C332.305 301.31 331.739 299.825 331.739 297.994C331.739 296.188 332.301 294.682 333.424 293.478C334.555 292.273 335.979 291.671 337.696 291.671C338.535 291.671 339.316 291.842 340.04 292.184C340.764 292.525 341.383 293.014 341.896 293.648H341.92V291.83ZM337.892 302.303C339.023 302.303 339.987 301.9 340.785 301.095C341.59 300.289 341.993 299.256 341.993 297.994C341.993 296.733 341.607 295.679 340.833 294.833C340.06 293.978 339.088 293.551 337.916 293.551C336.744 293.551 335.764 293.962 334.974 294.784C334.185 295.597 333.79 296.668 333.79 297.994C333.79 299.239 334.168 300.269 334.925 301.083C335.682 301.896 336.671 302.303 337.892 302.303ZM347.853 304V285.604H349.879V304H347.853ZM362.184 291.83H364.332L357.459 308.956H355.311L357.484 303.5L352.333 291.83H354.505L358.46 301.095H358.509L362.184 291.83ZM370.338 304.146C368.222 304.146 367.164 302.889 367.164 300.375V293.575H365.614V291.83H367.164V287.679L369.19 287.447V291.83H373.243V293.575H369.19V300.069C369.19 300.826 369.3 301.38 369.52 301.729C369.748 302.079 370.139 302.254 370.692 302.254C371.319 302.254 372.002 302.043 372.743 301.62L373.292 303.402C372.413 303.898 371.428 304.146 370.338 304.146ZM377.052 289.571C376.637 289.571 376.291 289.437 376.014 289.168C375.737 288.9 375.599 288.562 375.599 288.155C375.599 287.765 375.737 287.431 376.014 287.154C376.299 286.869 376.645 286.727 377.052 286.727C377.451 286.727 377.792 286.869 378.077 287.154C378.362 287.431 378.504 287.765 378.504 288.155C378.504 288.554 378.362 288.892 378.077 289.168C377.8 289.437 377.459 289.571 377.052 289.571ZM376.026 304V291.83H378.053V304H376.026ZM387.379 304.146C385.621 304.146 384.177 303.569 383.045 302.413C381.914 301.257 381.349 299.76 381.349 297.921C381.349 296.082 381.918 294.58 383.058 293.417C384.197 292.253 385.662 291.671 387.452 291.671C388.388 291.671 389.291 291.862 390.162 292.245C391.033 292.619 391.761 293.156 392.347 293.856L390.956 295.077C390.573 294.605 390.085 294.234 389.491 293.966C388.905 293.689 388.258 293.551 387.55 293.551C386.321 293.551 385.32 293.958 384.547 294.771C383.782 295.585 383.399 296.635 383.399 297.921C383.399 299.223 383.782 300.281 384.547 301.095C385.32 301.9 386.321 302.303 387.55 302.303C388.242 302.303 388.893 302.169 389.503 301.9C390.113 301.632 390.614 301.282 391.004 300.851L392.396 302.096C391.859 302.698 391.147 303.19 390.26 303.573C389.381 303.955 388.421 304.146 387.379 304.146ZM398.89 304.146C397.002 304.146 395.411 303.565 394.117 302.401L395.167 300.875C395.688 301.355 396.233 301.717 396.803 301.961C397.381 302.206 398.076 302.328 398.89 302.328C399.59 302.328 400.147 302.173 400.562 301.864C400.978 301.546 401.185 301.16 401.185 300.704C401.185 300.452 401.124 300.236 401.002 300.057C400.88 299.87 400.685 299.703 400.416 299.557C400.156 299.402 399.875 299.268 399.574 299.154C399.273 299.04 398.886 298.902 398.414 298.739C398.357 298.722 398.316 298.71 398.292 298.702C397.722 298.499 397.246 298.307 396.864 298.128C396.489 297.941 396.115 297.705 395.741 297.42C395.375 297.127 395.098 296.778 394.911 296.371C394.732 295.964 394.642 295.492 394.642 294.955C394.642 294.011 395.021 293.229 395.777 292.611C396.542 291.984 397.503 291.671 398.658 291.671C400.204 291.671 401.596 292.171 402.833 293.172L401.783 294.771C400.823 293.941 399.749 293.526 398.561 293.526C398.072 293.526 397.637 293.661 397.254 293.929C396.88 294.19 396.693 294.531 396.693 294.955C396.693 295.182 396.746 295.39 396.852 295.577C396.957 295.756 397.128 295.923 397.364 296.078C397.608 296.232 397.84 296.362 398.06 296.468C398.288 296.574 398.597 296.7 398.988 296.847C400.29 297.351 401.063 297.665 401.307 297.787C402.153 298.194 402.711 298.686 402.979 299.264C403.159 299.654 403.244 300.126 403.236 300.68C403.236 301.689 402.861 302.519 402.113 303.17C401.364 303.821 400.29 304.146 398.89 304.146Z" fill="#4608AD"/>
<path d="M304.444 422.122C303.622 422.122 302.788 421.931 301.942 421.548C301.104 421.158 300.392 420.6 299.806 419.876L301.026 418.277C301.482 418.798 302.007 419.225 302.601 419.559C303.195 419.884 303.785 420.047 304.371 420.047C306.324 420.047 307.301 418.757 307.301 416.177V404.251H309.449V416.226C309.449 418.171 309.046 419.64 308.241 420.633C307.435 421.626 306.17 422.122 304.444 422.122ZM322.804 409.83H324.83V422H322.877V420.071H322.853C322.356 420.73 321.742 421.243 321.009 421.609C320.277 421.967 319.475 422.146 318.604 422.146C316.887 422.146 315.459 421.581 314.32 420.45C313.189 419.31 312.623 417.825 312.623 415.994C312.623 414.188 313.185 412.682 314.308 411.478C315.439 410.273 316.863 409.671 318.58 409.671C319.418 409.671 320.2 409.842 320.924 410.184C321.648 410.525 322.267 411.014 322.779 411.648H322.804V409.83ZM318.775 420.303C319.907 420.303 320.871 419.9 321.668 419.095C322.474 418.289 322.877 417.256 322.877 415.994C322.877 414.733 322.49 413.679 321.717 412.833C320.944 411.978 319.972 411.551 318.8 411.551C317.628 411.551 316.647 411.962 315.858 412.784C315.069 413.597 314.674 414.668 314.674 415.994C314.674 417.239 315.052 418.269 315.809 419.083C316.566 419.896 317.555 420.303 318.775 420.303ZM336.915 409.83H339.112L334.156 422H332.215L327.235 409.83H329.408L333.167 419.424H333.241L336.915 409.83ZM350.416 409.83H352.442V422H350.489V420.071H350.465C349.968 420.73 349.354 421.243 348.622 421.609C347.889 421.967 347.088 422.146 346.217 422.146C344.5 422.146 343.071 421.581 341.932 420.45C340.801 419.31 340.235 417.825 340.235 415.994C340.235 414.188 340.797 412.682 341.92 411.478C343.051 410.273 344.475 409.671 346.192 409.671C347.031 409.671 347.812 409.842 348.536 410.184C349.26 410.525 349.879 411.014 350.392 411.648H350.416V409.83ZM346.388 420.303C347.519 420.303 348.483 419.9 349.281 419.095C350.086 418.289 350.489 417.256 350.489 415.994C350.489 414.733 350.103 413.679 349.33 412.833C348.556 411.978 347.584 411.551 346.412 411.551C345.24 411.551 344.26 411.962 343.47 412.784C342.681 413.597 342.286 414.668 342.286 415.994C342.286 417.239 342.665 418.269 343.421 419.083C344.178 419.896 345.167 420.303 346.388 420.303ZM359.901 422.146C358.013 422.146 356.422 421.565 355.128 420.401L356.178 418.875C356.699 419.355 357.244 419.717 357.813 419.961C358.391 420.206 359.087 420.328 359.901 420.328C360.601 420.328 361.158 420.173 361.573 419.864C361.988 419.546 362.196 419.16 362.196 418.704C362.196 418.452 362.135 418.236 362.013 418.057C361.891 417.87 361.695 417.703 361.427 417.557C361.166 417.402 360.886 417.268 360.584 417.154C360.283 417.04 359.897 416.902 359.425 416.739C359.368 416.722 359.327 416.71 359.303 416.702C358.733 416.499 358.257 416.307 357.875 416.128C357.5 415.941 357.126 415.705 356.751 415.42C356.385 415.127 356.109 414.778 355.921 414.371C355.742 413.964 355.653 413.492 355.653 412.955C355.653 412.011 356.031 411.229 356.788 410.611C357.553 409.984 358.513 409.671 359.669 409.671C361.215 409.671 362.607 410.171 363.844 411.172L362.794 412.771C361.834 411.941 360.759 411.526 359.571 411.526C359.083 411.526 358.648 411.661 358.265 411.929C357.891 412.19 357.704 412.531 357.704 412.955C357.704 413.182 357.757 413.39 357.862 413.577C357.968 413.756 358.139 413.923 358.375 414.078C358.619 414.232 358.851 414.362 359.071 414.468C359.299 414.574 359.608 414.7 359.999 414.847C361.301 415.351 362.074 415.665 362.318 415.787C363.164 416.194 363.722 416.686 363.99 417.264C364.169 417.654 364.255 418.126 364.247 418.68C364.247 419.689 363.872 420.519 363.124 421.17C362.375 421.821 361.301 422.146 359.901 422.146ZM372.413 422.146C370.655 422.146 369.211 421.569 368.08 420.413C366.948 419.257 366.383 417.76 366.383 415.921C366.383 414.082 366.952 412.58 368.092 411.417C369.231 410.253 370.696 409.671 372.486 409.671C373.422 409.671 374.326 409.862 375.196 410.245C376.067 410.619 376.795 411.156 377.381 411.856L375.99 413.077C375.607 412.605 375.119 412.234 374.525 411.966C373.939 411.689 373.292 411.551 372.584 411.551C371.355 411.551 370.354 411.958 369.581 412.771C368.816 413.585 368.434 414.635 368.434 415.921C368.434 417.223 368.816 418.281 369.581 419.095C370.354 419.9 371.355 420.303 372.584 420.303C373.276 420.303 373.927 420.169 374.537 419.9C375.147 419.632 375.648 419.282 376.039 418.851L377.43 420.096C376.893 420.698 376.181 421.19 375.294 421.573C374.415 421.955 373.455 422.146 372.413 422.146ZM386.219 409.671C386.472 409.671 386.638 409.679 386.72 409.695V411.954C386.345 411.921 386.081 411.905 385.926 411.905C384.795 411.905 383.896 412.299 383.229 413.089C382.561 413.87 382.228 414.883 382.228 416.128V422H380.201V409.83H382.228V411.978H382.252C382.708 411.246 383.277 410.68 383.961 410.281C384.653 409.874 385.405 409.671 386.219 409.671ZM390.333 407.571C389.918 407.571 389.572 407.437 389.295 407.168C389.019 406.9 388.88 406.562 388.88 406.155C388.88 405.765 389.019 405.431 389.295 405.154C389.58 404.869 389.926 404.727 390.333 404.727C390.732 404.727 391.074 404.869 391.358 405.154C391.643 405.431 391.786 405.765 391.786 406.155C391.786 406.554 391.643 406.892 391.358 407.168C391.082 407.437 390.74 407.571 390.333 407.571ZM389.308 422V409.83H391.334V422H389.308ZM401.612 409.671C403.329 409.671 404.75 410.273 405.873 411.478C406.996 412.682 407.557 414.188 407.557 415.994C407.557 417.825 406.992 419.31 405.86 420.45C404.729 421.581 403.313 422.146 401.612 422.146C400.766 422.146 399.985 421.98 399.269 421.646C398.561 421.304 397.958 420.824 397.462 420.206H397.413V426.956H395.411V409.83H397.438V411.624H397.462C397.975 410.997 398.589 410.517 399.305 410.184C400.029 409.842 400.799 409.671 401.612 409.671ZM401.405 420.303C402.625 420.303 403.614 419.896 404.371 419.083C405.128 418.269 405.506 417.239 405.506 415.994C405.506 414.668 405.112 413.597 404.322 412.784C403.541 411.962 402.56 411.551 401.38 411.551C400.233 411.551 399.273 411.978 398.5 412.833C397.735 413.687 397.352 414.741 397.352 415.994C397.352 417.247 397.751 418.281 398.548 419.095C399.346 419.9 400.298 420.303 401.405 420.303ZM413.99 422.146C411.874 422.146 410.816 420.889 410.816 418.375V411.575H409.266V409.83H410.816V405.679L412.843 405.447V409.83H416.896V411.575H412.843V418.069C412.843 418.826 412.953 419.38 413.172 419.729C413.4 420.079 413.791 420.254 414.344 420.254C414.971 420.254 415.654 420.043 416.395 419.62L416.944 421.402C416.065 421.898 415.081 422.146 413.99 422.146ZM427.064 422V411.575H425.562V409.83H427.064V407.376C427.064 406.082 427.357 405.101 427.943 404.434C428.529 403.759 429.367 403.421 430.458 403.421C431.491 403.421 432.443 403.681 433.314 404.202L432.862 405.948C432.073 405.533 431.365 405.325 430.738 405.325C429.623 405.325 429.066 406.066 429.066 407.547V409.83H432.508V411.575H429.066V422H427.064ZM440.858 409.671C441.11 409.671 441.277 409.679 441.358 409.695V411.954C440.984 411.921 440.72 411.905 440.565 411.905C439.434 411.905 438.535 412.299 437.867 413.089C437.2 413.87 436.866 414.883 436.866 416.128V422H434.84V409.83H436.866V411.978H436.891C437.346 411.246 437.916 410.68 438.6 410.281C439.291 409.874 440.044 409.671 440.858 409.671ZM452.809 409.83H454.835V422H452.882V420.071H452.857C452.361 420.73 451.747 421.243 451.014 421.609C450.282 421.967 449.48 422.146 448.609 422.146C446.892 422.146 445.464 421.581 444.325 420.45C443.194 419.31 442.628 417.825 442.628 415.994C442.628 414.188 443.189 412.682 444.312 411.478C445.444 410.273 446.868 409.671 448.585 409.671C449.423 409.671 450.204 409.842 450.929 410.184C451.653 410.525 452.271 411.014 452.784 411.648H452.809V409.83ZM448.78 420.303C449.911 420.303 450.876 419.9 451.673 419.095C452.479 418.289 452.882 417.256 452.882 415.994C452.882 414.733 452.495 413.679 451.722 412.833C450.949 411.978 449.977 411.551 448.805 411.551C447.633 411.551 446.652 411.962 445.863 412.784C445.073 413.597 444.679 414.668 444.679 415.994C444.679 417.239 445.057 418.269 445.814 419.083C446.571 419.896 447.56 420.303 448.78 420.303ZM473.036 409.671C475.892 409.671 477.32 411.404 477.32 414.871V422H475.294V415.42C475.294 414.061 475.062 413.077 474.598 412.466C474.134 411.856 473.414 411.551 472.438 411.551C471.469 411.551 470.659 411.954 470.008 412.759C469.365 413.557 469.044 414.619 469.044 415.945V422H467.018V415.396C467.018 414.069 466.773 413.097 466.285 412.479C465.805 411.86 465.081 411.551 464.112 411.551C463.103 411.551 462.265 411.95 461.598 412.747C460.93 413.545 460.597 414.611 460.597 415.945V422H458.595V409.83H460.597V411.929H460.621C461.118 411.213 461.724 410.66 462.44 410.269C463.164 409.87 463.925 409.671 464.723 409.671C466.66 409.671 467.949 410.472 468.592 412.076H468.617C469.105 411.303 469.732 410.708 470.497 410.293C471.262 409.878 472.108 409.671 473.036 409.671ZM491.627 415.726C491.627 415.856 491.619 416.027 491.603 416.238L491.578 416.556H482.203C482.341 417.695 482.781 418.606 483.521 419.29C484.262 419.965 485.182 420.303 486.28 420.303C487.704 420.303 488.848 419.754 489.71 418.655L491.126 419.876C489.955 421.39 488.315 422.146 486.207 422.146C484.465 422.146 483.021 421.569 481.874 420.413C480.726 419.249 480.152 417.752 480.152 415.921C480.152 414.098 480.706 412.601 481.812 411.429C482.927 410.257 484.315 409.671 485.975 409.671C487.66 409.671 489.023 410.241 490.064 411.38C491.106 412.511 491.627 413.96 491.627 415.726ZM488.441 412.454C487.831 411.852 487.045 411.551 486.085 411.551C485.125 411.551 484.295 411.848 483.595 412.442C482.903 413.036 482.464 413.846 482.276 414.871H489.625C489.454 413.854 489.059 413.048 488.441 412.454ZM508.619 409.83H510.658L506.434 422H504.542L501.783 413.125H501.759L498.988 422H497.145L492.909 409.83H494.959L498.06 418.924H498.109L500.892 409.83H502.638L505.458 418.924H505.519L508.619 409.83ZM518.116 422.146C516.879 422.146 515.777 421.874 514.808 421.329C513.848 420.775 513.107 420.027 512.586 419.083C512.074 418.139 511.817 417.085 511.817 415.921C511.817 414.139 512.399 412.653 513.563 411.465C514.735 410.269 516.253 409.671 518.116 409.671C519.923 409.671 521.416 410.257 522.596 411.429C523.776 412.592 524.366 414.09 524.366 415.921C524.366 417.752 523.776 419.249 522.596 420.413C521.416 421.569 519.923 422.146 518.116 422.146ZM518.116 420.303C519.304 420.303 520.301 419.892 521.107 419.07C521.913 418.248 522.315 417.199 522.315 415.921C522.315 414.635 521.913 413.585 521.107 412.771C520.309 411.958 519.312 411.551 518.116 411.551C516.863 411.551 515.842 411.97 515.052 412.808C514.263 413.646 513.868 414.684 513.868 415.921C513.868 417.158 514.263 418.2 515.052 419.046C515.85 419.884 516.871 420.303 518.116 420.303ZM533.509 409.671C533.762 409.671 533.928 409.679 534.01 409.695V411.954C533.635 411.921 533.371 411.905 533.216 411.905C532.085 411.905 531.186 412.299 530.519 413.089C529.851 413.87 529.518 414.883 529.518 416.128V422H527.491V409.83H529.518V411.978H529.542C529.998 411.246 530.567 410.68 531.251 410.281C531.943 409.874 532.695 409.671 533.509 409.671ZM541.053 416.421H540.992L538.453 419.253V422H536.451V403.604H538.453V416.47H538.502L544.471 409.83H546.949L542.396 414.871L546.974 422H544.642L541.053 416.421Z" fill="#4608AD"/>
<path d="M362.397 232.146C361.242 232.146 360.115 231.919 359.016 231.463C357.926 231.007 356.953 230.319 356.099 229.4L357.502 227.752C358.113 228.509 358.857 229.091 359.736 229.498C360.623 229.896 361.519 230.096 362.422 230.096C363.521 230.096 364.399 229.852 365.059 229.363C365.718 228.875 366.047 228.212 366.047 227.374C366.047 227.105 366.015 226.857 365.95 226.629C365.885 226.401 365.803 226.202 365.706 226.031C365.616 225.86 365.478 225.693 365.291 225.53C365.103 225.368 364.924 225.229 364.753 225.115C364.583 225.001 364.351 224.879 364.058 224.749C363.773 224.619 363.512 224.509 363.276 224.419C363.049 224.33 362.747 224.212 362.373 224.065C362.243 224.017 362.145 223.98 362.08 223.956C361.624 223.785 361.246 223.638 360.945 223.516C360.652 223.394 360.298 223.235 359.883 223.04C359.476 222.845 359.138 222.658 358.87 222.479C358.609 222.291 358.333 222.068 358.04 221.807C357.755 221.539 357.527 221.262 357.356 220.977C357.185 220.692 357.043 220.363 356.929 219.988C356.823 219.614 356.77 219.211 356.77 218.78C356.77 217.461 357.295 216.355 358.345 215.459C359.395 214.556 360.68 214.096 362.202 214.08C364.22 214.08 366.096 214.772 367.83 216.155L366.499 217.852C365.815 217.282 365.099 216.847 364.351 216.546C363.602 216.245 362.886 216.094 362.202 216.094C361.331 216.094 360.587 216.326 359.968 216.79C359.358 217.246 359.053 217.872 359.053 218.67C359.053 218.857 359.073 219.036 359.114 219.207C359.154 219.37 359.199 219.52 359.248 219.659C359.305 219.789 359.403 219.923 359.541 220.062C359.679 220.2 359.793 220.314 359.883 220.403C359.972 220.493 360.127 220.603 360.347 220.733C360.575 220.855 360.741 220.949 360.847 221.014C360.961 221.079 361.169 221.176 361.47 221.307C361.771 221.429 361.982 221.518 362.104 221.575C362.235 221.624 362.475 221.718 362.825 221.856C364.306 222.426 365.299 222.845 365.803 223.113C366.934 223.732 367.679 224.497 368.037 225.408C368.232 225.921 368.33 226.503 368.33 227.154C368.33 227.943 368.163 228.663 367.83 229.314C367.504 229.957 367.061 230.482 366.499 230.889C365.946 231.288 365.315 231.597 364.607 231.817C363.907 232.037 363.171 232.146 362.397 232.146ZM378.071 219.671C379.447 219.671 380.529 220.09 381.318 220.928C382.108 221.758 382.502 223.016 382.502 224.7V232H380.476V225.274C380.476 222.792 379.483 221.551 377.498 221.551C376.277 221.551 375.312 221.933 374.604 222.698C373.905 223.463 373.555 224.521 373.555 225.872V232H371.528V213.604H373.555V221.819H373.604C374.1 221.119 374.731 220.586 375.496 220.22C376.269 219.854 377.127 219.671 378.071 219.671ZM391.67 232.146C390.433 232.146 389.33 231.874 388.362 231.329C387.402 230.775 386.661 230.027 386.14 229.083C385.627 228.139 385.371 227.085 385.371 225.921C385.371 224.139 385.953 222.653 387.117 221.465C388.289 220.269 389.806 219.671 391.67 219.671C393.477 219.671 394.97 220.257 396.15 221.429C397.33 222.592 397.92 224.09 397.92 225.921C397.92 227.752 397.33 229.249 396.15 230.413C394.97 231.569 393.477 232.146 391.67 232.146ZM391.67 230.303C392.858 230.303 393.855 229.892 394.661 229.07C395.466 228.248 395.869 227.199 395.869 225.921C395.869 224.635 395.466 223.585 394.661 222.771C393.863 221.958 392.866 221.551 391.67 221.551C390.417 221.551 389.395 221.97 388.606 222.808C387.817 223.646 387.422 224.684 387.422 225.921C387.422 227.158 387.817 228.2 388.606 229.046C389.403 229.884 390.425 230.303 391.67 230.303ZM407.271 219.671C408.988 219.671 410.408 220.273 411.531 221.478C412.654 222.682 413.215 224.188 413.215 225.994C413.215 227.825 412.65 229.31 411.519 230.45C410.387 231.581 408.971 232.146 407.271 232.146C406.424 232.146 405.643 231.98 404.927 231.646C404.219 231.304 403.617 230.824 403.12 230.206H403.071V236.956H401.069V219.83H403.096V221.624H403.12C403.633 220.997 404.247 220.517 404.963 220.184C405.688 219.842 406.457 219.671 407.271 219.671ZM407.063 230.303C408.284 230.303 409.272 229.896 410.029 229.083C410.786 228.269 411.165 227.239 411.165 225.994C411.165 224.668 410.77 223.597 409.98 222.784C409.199 221.962 408.219 221.551 407.039 221.551C405.891 221.551 404.931 221.978 404.158 222.833C403.393 223.687 403.01 224.741 403.01 225.994C403.01 227.247 403.409 228.281 404.207 229.095C405.004 229.9 405.956 230.303 407.063 230.303ZM417.524 217.571C417.109 217.571 416.764 217.437 416.487 217.168C416.21 216.9 416.072 216.562 416.072 216.155C416.072 215.765 416.21 215.431 416.487 215.154C416.772 214.869 417.118 214.727 417.524 214.727C417.923 214.727 418.265 214.869 418.55 215.154C418.835 215.431 418.977 215.765 418.977 216.155C418.977 216.554 418.835 216.892 418.55 217.168C418.273 217.437 417.931 217.571 417.524 217.571ZM416.499 232V219.83H418.525V232H416.499ZM423.103 232V221.575H421.602V219.83H423.103V217.376C423.103 216.082 423.396 215.101 423.982 214.434C424.568 213.759 425.406 213.421 426.497 213.421C427.53 213.421 428.482 213.681 429.353 214.202L428.901 215.948C428.112 215.533 427.404 215.325 426.777 215.325C425.662 215.325 425.105 216.066 425.105 217.547V219.83H428.547V221.575H425.105V232H423.103ZM439.57 219.83H441.719L434.846 236.956H432.698L434.871 231.5L429.719 219.83H431.892L435.847 229.095H435.896L439.57 219.83Z" fill="#AAAAAA"/>
<path d="M332.343 212.713C332.317 212.542 332.16 212.444 332.03 212.444C331.9 212.444 329.109 212.249 329.109 212.249C329.109 212.249 327.179 210.442 326.944 210.246C326.736 210.051 326.319 210.1 326.162 210.149C326.136 210.149 325.745 210.271 325.067 210.466C324.415 208.684 323.267 207.072 321.259 207.072C321.207 207.072 321.155 207.072 321.076 207.072C320.529 206.388 319.799 206.071 319.199 206.071C314.504 206.071 312.262 211.565 311.557 214.348C309.732 214.886 308.428 215.252 308.271 215.301C307.254 215.594 307.228 215.618 307.098 216.522C306.993 217.205 304.333 236.495 304.333 236.495L325.067 240.133L336.307 237.862C336.307 237.838 332.369 212.883 332.343 212.713ZM323.919 210.759C323.398 210.906 322.798 211.077 322.172 211.272C322.172 211.15 322.172 211.052 322.172 210.906C322.172 209.831 322.015 208.952 321.755 208.244C322.798 208.391 323.476 209.489 323.919 210.759ZM320.451 208.488C320.737 209.172 320.92 210.124 320.92 211.443C320.92 211.516 320.92 211.565 320.92 211.638C319.772 211.98 318.547 212.322 317.295 212.688C317.999 210.173 319.329 208.952 320.451 208.488ZM319.068 207.243C319.277 207.243 319.486 207.316 319.668 207.438C318.156 208.098 316.565 209.758 315.887 213.103C314.896 213.396 313.931 213.665 313.018 213.933C313.8 211.394 315.704 207.243 319.068 207.243Z" fill="#A283D6"/>
<path d="M332.03 212.419C331.9 212.419 329.109 212.224 329.109 212.224C329.109 212.224 327.179 210.417 326.944 210.222C326.866 210.149 326.762 210.1 326.658 210.1L325.093 240.133L336.333 237.862C336.333 237.862 332.395 212.883 332.369 212.713C332.317 212.542 332.16 212.444 332.03 212.419Z" fill="#4608AD"/>
<path d="M321.259 218.231L319.877 222.089C319.877 222.089 318.651 221.478 317.165 221.478C314.974 221.478 314.87 222.772 314.87 223.09C314.87 224.848 319.773 225.532 319.773 229.658C319.773 232.906 317.582 235.006 314.609 235.006C311.036 235.006 309.236 232.93 309.236 232.93L310.201 229.976C310.201 229.976 312.079 231.489 313.644 231.489C314.687 231.489 315.104 230.733 315.104 230.171C315.104 227.876 311.088 227.778 311.088 223.993C311.088 220.819 313.513 217.743 318.443 217.743C320.32 217.718 321.259 218.231 321.259 218.231Z" fill="white"/>
<path d="M330.602 331.071H324.805C323.391 331.071 322.232 332.157 322.232 333.481V340.545V361.071H324.805H330.602C332.017 361.071 333.176 359.986 333.176 358.662V333.481C333.176 332.157 332.017 331.071 330.602 331.071Z" fill="#A283D6"/>
<path d="M311.252 342.913V350.808H303.663C302.275 350.808 301.133 351.877 301.133 353.176V358.703C301.133 360.002 302.275 361.071 303.663 361.071H322.214V340.545H313.782C312.385 340.545 311.252 341.614 311.252 342.913Z" fill="#4608AD" fill-opacity="0.25"/>
<path d="M322.214 340.66V361.071H324.788H330.585C331.138 361.071 331.656 360.907 332.078 360.619C332.728 360.183 333.158 359.467 333.158 358.662V350.907L322.214 340.66Z" fill="#4608AD"/>
<path d="M364.924 344.845H372.249V351.876C371.418 352.584 370.397 353.137 369.185 353.536C367.98 353.927 366.702 354.122 365.352 354.122C364.082 354.122 362.902 353.91 361.812 353.487C360.721 353.064 359.781 352.47 358.992 351.705C358.21 350.94 357.596 349.996 357.148 348.873C356.701 347.742 356.477 346.501 356.477 345.15C356.477 343.408 356.835 341.854 357.551 340.487C358.267 339.111 359.297 338.033 360.64 337.252C361.982 336.471 363.529 336.08 365.278 336.08C366.54 336.08 367.756 336.308 368.928 336.764C370.1 337.219 371.142 337.923 372.053 338.875L370.503 340.206C369.062 338.839 367.313 338.155 365.254 338.155C363.366 338.155 361.807 338.798 360.579 340.084C359.358 341.37 358.748 343.058 358.748 345.15C358.748 346.476 359.016 347.669 359.553 348.727C360.098 349.776 360.876 350.602 361.885 351.205C362.894 351.799 364.049 352.096 365.352 352.096C367.248 352.096 368.822 351.648 370.076 350.753V346.847H364.924V344.845ZM381.538 354.146C380.301 354.146 379.198 353.874 378.23 353.329C377.27 352.775 376.529 352.027 376.008 351.083C375.496 350.139 375.239 349.085 375.239 347.921C375.239 346.139 375.821 344.653 376.985 343.465C378.157 342.269 379.674 341.671 381.538 341.671C383.345 341.671 384.838 342.257 386.018 343.429C387.198 344.592 387.788 346.09 387.788 347.921C387.788 349.752 387.198 351.249 386.018 352.413C384.838 353.569 383.345 354.146 381.538 354.146ZM381.538 352.303C382.726 352.303 383.723 351.892 384.529 351.07C385.334 350.248 385.737 349.199 385.737 347.921C385.737 346.635 385.334 345.585 384.529 344.771C383.731 343.958 382.734 343.551 381.538 343.551C380.285 343.551 379.264 343.97 378.474 344.808C377.685 345.646 377.29 346.684 377.29 347.921C377.29 349.158 377.685 350.2 378.474 351.046C379.272 351.884 380.293 352.303 381.538 352.303ZM396.455 354.146C395.218 354.146 394.115 353.874 393.147 353.329C392.187 352.775 391.446 352.027 390.925 351.083C390.413 350.139 390.156 349.085 390.156 347.921C390.156 346.139 390.738 344.653 391.902 343.465C393.074 342.269 394.591 341.671 396.455 341.671C398.262 341.671 399.755 342.257 400.935 343.429C402.115 344.592 402.705 346.09 402.705 347.921C402.705 349.752 402.115 351.249 400.935 352.413C399.755 353.569 398.262 354.146 396.455 354.146ZM396.455 352.303C397.643 352.303 398.64 351.892 399.446 351.07C400.251 350.248 400.654 349.199 400.654 347.921C400.654 346.635 400.251 345.585 399.446 344.771C398.648 343.958 397.651 343.551 396.455 343.551C395.202 343.551 394.181 343.97 393.391 344.808C392.602 345.646 392.207 346.684 392.207 347.921C392.207 349.158 392.602 350.2 393.391 351.046C394.189 351.884 395.21 352.303 396.455 352.303ZM415.071 341.83H417.073V353.072C417.073 353.976 416.959 354.785 416.731 355.501C416.503 356.226 416.153 356.861 415.681 357.406C415.217 357.951 414.599 358.37 413.826 358.663C413.053 358.956 412.145 359.103 411.104 359.103C409.264 359.103 407.612 358.659 406.147 357.772L406.624 355.904C407.389 356.336 408.105 356.653 408.772 356.856C409.447 357.068 410.192 357.174 411.006 357.174C412.324 357.174 413.337 356.836 414.045 356.161C414.753 355.493 415.107 354.639 415.107 353.597V351.9H415.046C414.029 353.154 412.654 353.78 410.92 353.78C409.26 353.78 407.861 353.219 406.721 352.096C405.59 350.973 405.024 349.524 405.024 347.75C405.024 346.025 405.578 344.58 406.685 343.417C407.799 342.253 409.179 341.671 410.823 341.671C411.637 341.671 412.41 341.834 413.142 342.159C413.875 342.477 414.501 342.932 415.022 343.526H415.071V341.83ZM411.079 351.876C412.292 351.876 413.272 351.481 414.021 350.692C414.778 349.894 415.156 348.881 415.156 347.652C415.156 346.448 414.766 345.467 413.984 344.71C413.211 343.954 412.243 343.575 411.079 343.575C409.924 343.575 408.971 343.966 408.223 344.747C407.474 345.52 407.1 346.497 407.1 347.677C407.1 348.938 407.482 349.955 408.247 350.729C409.012 351.493 409.956 351.876 411.079 351.876ZM420.967 354V335.604H422.993V354H420.967ZM437.764 347.726C437.764 347.856 437.756 348.027 437.739 348.238L437.715 348.556H428.34C428.478 349.695 428.918 350.606 429.658 351.29C430.399 351.965 431.318 352.303 432.417 352.303C433.841 352.303 434.985 351.754 435.847 350.655L437.263 351.876C436.091 353.39 434.451 354.146 432.344 354.146C430.602 354.146 429.158 353.569 428.01 352.413C426.863 351.249 426.289 349.752 426.289 347.921C426.289 346.098 426.842 344.601 427.949 343.429C429.064 342.257 430.452 341.671 432.112 341.671C433.796 341.671 435.16 342.241 436.201 343.38C437.243 344.511 437.764 345.96 437.764 347.726ZM434.578 344.454C433.967 343.852 433.182 343.551 432.222 343.551C431.261 343.551 430.431 343.848 429.731 344.442C429.04 345.036 428.6 345.846 428.413 346.871H435.762C435.591 345.854 435.196 345.048 434.578 344.454ZM459.871 354L458.296 349.679H450.374L448.799 354H446.492L453.218 336.251H455.391L462.166 354H459.871ZM451.069 347.774H457.6L454.341 338.9H454.292L451.069 347.774ZM471.235 341.671C472.594 341.671 473.665 342.098 474.446 342.953C475.227 343.807 475.618 345.081 475.618 346.773V354H473.591V347.347C473.591 345.996 473.331 345.028 472.81 344.442C472.289 343.848 471.557 343.551 470.613 343.551C469.449 343.551 468.521 343.941 467.83 344.723C467.138 345.496 466.792 346.562 466.792 347.921V354H464.766V341.83H466.792V343.954H466.816C467.329 343.229 467.968 342.668 468.733 342.269C469.506 341.87 470.34 341.671 471.235 341.671ZM488.716 341.83H490.742V354H488.789V352.071H488.765C488.268 352.73 487.654 353.243 486.921 353.609C486.189 353.967 485.387 354.146 484.517 354.146C482.799 354.146 481.371 353.581 480.232 352.45C479.101 351.31 478.535 349.825 478.535 347.994C478.535 346.188 479.097 344.682 480.22 343.478C481.351 342.273 482.775 341.671 484.492 341.671C485.33 341.671 486.112 341.842 486.836 342.184C487.56 342.525 488.179 343.014 488.691 343.648H488.716V341.83ZM484.688 352.303C485.819 352.303 486.783 351.9 487.581 351.095C488.386 350.289 488.789 349.256 488.789 347.994C488.789 346.733 488.403 345.679 487.629 344.833C486.856 343.978 485.884 343.551 484.712 343.551C483.54 343.551 482.559 343.962 481.77 344.784C480.981 345.597 480.586 346.668 480.586 347.994C480.586 349.239 480.964 350.269 481.721 351.083C482.478 351.896 483.467 352.303 484.688 352.303ZM494.648 354V335.604H496.675V354H494.648ZM508.979 341.83H511.128L504.255 358.956H502.107L504.28 353.5L499.128 341.83H501.301L505.256 351.095H505.305L508.979 341.83ZM517.134 354.146C515.018 354.146 513.96 352.889 513.96 350.375V343.575H512.41V341.83H513.96V337.679L515.986 337.447V341.83H520.039V343.575H515.986V350.069C515.986 350.826 516.096 351.38 516.316 351.729C516.544 352.079 516.934 352.254 517.488 352.254C518.114 352.254 518.798 352.043 519.539 351.62L520.088 353.402C519.209 353.898 518.224 354.146 517.134 354.146ZM523.848 339.571C523.433 339.571 523.087 339.437 522.81 339.168C522.533 338.9 522.395 338.562 522.395 338.155C522.395 337.765 522.533 337.431 522.81 337.154C523.095 336.869 523.441 336.727 523.848 336.727C524.246 336.727 524.588 336.869 524.873 337.154C525.158 337.431 525.3 337.765 525.3 338.155C525.3 338.554 525.158 338.892 524.873 339.168C524.596 339.437 524.255 339.571 523.848 339.571ZM522.822 354V341.83H524.849V354H522.822ZM534.175 354.146C532.417 354.146 530.972 353.569 529.841 352.413C528.71 351.257 528.145 349.76 528.145 347.921C528.145 346.082 528.714 344.58 529.854 343.417C530.993 342.253 532.458 341.671 534.248 341.671C535.184 341.671 536.087 341.862 536.958 342.245C537.829 342.619 538.557 343.156 539.143 343.856L537.751 345.077C537.369 344.605 536.881 344.234 536.287 343.966C535.701 343.689 535.054 343.551 534.346 343.551C533.117 343.551 532.116 343.958 531.343 344.771C530.578 345.585 530.195 346.635 530.195 347.921C530.195 349.223 530.578 350.281 531.343 351.095C532.116 351.9 533.117 352.303 534.346 352.303C535.037 352.303 535.688 352.169 536.299 351.9C536.909 351.632 537.41 351.282 537.8 350.851L539.192 352.096C538.655 352.698 537.943 353.19 537.056 353.573C536.177 353.955 535.216 354.146 534.175 354.146ZM545.686 354.146C543.798 354.146 542.207 353.565 540.913 352.401L541.963 350.875C542.484 351.355 543.029 351.717 543.599 351.961C544.176 352.206 544.872 352.328 545.686 352.328C546.386 352.328 546.943 352.173 547.358 351.864C547.773 351.546 547.981 351.16 547.981 350.704C547.981 350.452 547.92 350.236 547.798 350.057C547.676 349.87 547.48 349.703 547.212 349.557C546.951 349.402 546.671 349.268 546.37 349.154C546.069 349.04 545.682 348.902 545.21 348.739C545.153 348.722 545.112 348.71 545.088 348.702C544.518 348.499 544.042 348.307 543.66 348.128C543.285 347.941 542.911 347.705 542.537 347.42C542.17 347.127 541.894 346.778 541.707 346.371C541.528 345.964 541.438 345.492 541.438 344.955C541.438 344.011 541.816 343.229 542.573 342.611C543.338 341.984 544.299 341.671 545.454 341.671C547 341.671 548.392 342.171 549.629 343.172L548.579 344.771C547.619 343.941 546.545 343.526 545.356 343.526C544.868 343.526 544.433 343.661 544.05 343.929C543.676 344.19 543.489 344.531 543.489 344.955C543.489 345.182 543.542 345.39 543.647 345.577C543.753 345.756 543.924 345.923 544.16 346.078C544.404 346.232 544.636 346.362 544.856 346.468C545.084 346.574 545.393 346.7 545.784 346.847C547.086 347.351 547.859 347.665 548.103 347.787C548.949 348.194 549.507 348.686 549.775 349.264C549.954 349.654 550.04 350.126 550.032 350.68C550.032 351.689 549.657 352.519 548.909 353.17C548.16 353.821 547.086 354.146 545.686 354.146Z" fill="#AAAAAA"/>
<path d="M368.794 454.251H371.15L364.448 472H362.495L355.806 454.251H358.149L363.447 468.875H363.496L368.794 454.251ZM381.221 459.83H383.247V472H381.221V469.974H381.196C380.708 470.674 380.114 471.211 379.414 471.585C378.722 471.959 377.982 472.146 377.192 472.146C375.752 472.146 374.629 471.727 373.823 470.889C373.018 470.043 372.615 468.773 372.615 467.081V459.83H374.641V466.495C374.641 467.846 374.885 468.818 375.374 469.412C375.87 470.006 376.619 470.303 377.62 470.303C378.629 470.303 379.479 469.892 380.171 469.07C380.871 468.24 381.221 467.125 381.221 465.726V459.83ZM397.7 465.726C397.7 465.856 397.692 466.027 397.676 466.238L397.651 466.556H388.276C388.415 467.695 388.854 468.606 389.595 469.29C390.335 469.965 391.255 470.303 392.354 470.303C393.778 470.303 394.921 469.754 395.784 468.655L397.2 469.876C396.028 471.39 394.388 472.146 392.28 472.146C390.539 472.146 389.094 471.569 387.947 470.413C386.799 469.249 386.226 467.752 386.226 465.921C386.226 464.098 386.779 462.601 387.886 461.429C389.001 460.257 390.388 459.671 392.048 459.671C393.733 459.671 395.096 460.241 396.138 461.38C397.179 462.511 397.7 463.96 397.7 465.726ZM394.514 462.454C393.904 461.852 393.118 461.551 392.158 461.551C391.198 461.551 390.368 461.848 389.668 462.442C388.976 463.036 388.537 463.846 388.35 464.871H395.698C395.527 463.854 395.133 463.048 394.514 462.454ZM401.387 472.146C400.972 472.146 400.626 472.012 400.349 471.744C400.072 471.475 399.934 471.146 399.934 470.755C399.934 470.348 400.072 470.01 400.349 469.742C400.626 469.465 400.972 469.327 401.387 469.327C401.777 469.327 402.111 469.465 402.388 469.742C402.673 470.018 402.815 470.356 402.815 470.755C402.815 471.137 402.673 471.467 402.388 471.744C402.111 472.012 401.777 472.146 401.387 472.146ZM407.319 457.571C406.904 457.571 406.558 457.437 406.282 457.168C406.005 456.9 405.867 456.562 405.867 456.155C405.867 455.765 406.005 455.431 406.282 455.154C406.567 454.869 406.912 454.727 407.319 454.727C407.718 454.727 408.056 454.869 408.333 455.154C408.617 455.431 408.76 455.765 408.76 456.155C408.76 456.554 408.621 456.892 408.345 457.168C408.068 457.437 407.726 457.571 407.319 457.571ZM405.22 477.103C404.447 477.103 403.747 476.968 403.12 476.7L403.438 474.905C403.877 475.133 404.304 475.247 404.719 475.247C405.199 475.247 405.582 475.084 405.867 474.759C406.152 474.433 406.294 473.937 406.294 473.27V459.83H408.32V473.27C408.32 474.458 408.044 475.394 407.49 476.077C406.937 476.761 406.18 477.103 405.22 477.103ZM415.73 472.146C413.842 472.146 412.251 471.565 410.957 470.401L412.007 468.875C412.528 469.355 413.073 469.717 413.643 469.961C414.22 470.206 414.916 470.328 415.73 470.328C416.43 470.328 416.987 470.173 417.402 469.864C417.817 469.546 418.025 469.16 418.025 468.704C418.025 468.452 417.964 468.236 417.842 468.057C417.72 467.87 417.524 467.703 417.256 467.557C416.995 467.402 416.715 467.268 416.414 467.154C416.112 467.04 415.726 466.902 415.254 466.739C415.197 466.722 415.156 466.71 415.132 466.702C414.562 466.499 414.086 466.307 413.704 466.128C413.329 465.941 412.955 465.705 412.581 465.42C412.214 465.127 411.938 464.778 411.75 464.371C411.571 463.964 411.482 463.492 411.482 462.955C411.482 462.011 411.86 461.229 412.617 460.611C413.382 459.984 414.342 459.671 415.498 459.671C417.044 459.671 418.436 460.171 419.673 461.172L418.623 462.771C417.663 461.941 416.589 461.526 415.4 461.526C414.912 461.526 414.477 461.661 414.094 461.929C413.72 462.19 413.533 462.531 413.533 462.955C413.533 463.182 413.586 463.39 413.691 463.577C413.797 463.756 413.968 463.923 414.204 464.078C414.448 464.232 414.68 464.362 414.9 464.468C415.128 464.574 415.437 464.7 415.828 464.847C417.13 465.351 417.903 465.665 418.147 465.787C418.993 466.194 419.551 466.686 419.819 467.264C419.998 467.654 420.084 468.126 420.076 468.68C420.076 469.689 419.701 470.519 418.953 471.17C418.204 471.821 417.13 472.146 415.73 472.146Z" fill="#AAAAAA"/>
<path d="M321.742 450.071L317.475 456.999L313.208 450.071H299L317.475 480.071L335.95 450.071H321.742Z" fill="#A283D6"/>
<path d="M321.742 450.071L317.475 456.999L313.208 450.071H306.39L317.475 468.071L328.56 450.071H321.742Z" fill="#4608AD"/>
</svg>
