<svg width="750" height="600" viewBox="0 0 750 600" fill="none" xmlns="http://www.w3.org/2000/svg">
<rect width="750" height="600" fill="white"/>
<rect width="750" height="90" rx="10" fill="#4608AD" fill-opacity="0.25"/>
<rect x="3" y="3" width="744" height="594" rx="7" stroke="#4608AD" stroke-width="6"/>
<mask id="path-4-inside-1" fill="white">
<path fill-rule="evenodd" clip-rule="evenodd" d="M659.749 148H676C681.523 148 686 152.477 686 158V488C686 493.523 681.523 498 676 498H446C440.477 498 436 493.523 436 488V158C436 152.477 440.477 148 446 148H621.749L640.749 129L659.749 148Z"/>
</mask>
<path fill-rule="evenodd" clip-rule="evenodd" d="M659.749 148H676C681.523 148 686 152.477 686 158V488C686 493.523 681.523 498 676 498H446C440.477 498 436 493.523 436 488V158C436 152.477 440.477 148 446 148H621.749L640.749 129L659.749 148Z" fill="white"/>
<path d="M659.749 148L655.506 152.243L657.263 154H659.749V148ZM621.749 148V154H624.234L625.991 152.243L621.749 148ZM640.749 129L644.991 124.757L640.749 120.515L636.506 124.757L640.749 129ZM659.749 154H676V142H659.749V154ZM676 154C678.209 154 680 155.791 680 158H692C692 149.163 684.837 142 676 142V154ZM680 158V488H692V158H680ZM680 488C680 490.209 678.209 492 676 492V504C684.837 504 692 496.837 692 488H680ZM676 492H446V504H676V492ZM446 492C443.791 492 442 490.209 442 488H430C430 496.837 437.163 504 446 504V492ZM442 488V158H430V488H442ZM442 158C442 155.791 443.791 154 446 154V142C437.163 142 430 149.163 430 158H442ZM446 154H621.749V142H446V154ZM625.991 152.243L644.991 133.243L636.506 124.757L617.506 143.757L625.991 152.243ZM636.506 133.243L655.506 152.243L663.991 143.757L644.991 124.757L636.506 133.243Z" fill="#4608AD" mask="url(#path-4-inside-1)"/>
<rect x="476" y="285" width="70" height="12" fill="#4608AD" fill-opacity="0.25"/>
<rect x="476" y="248" width="100" height="12" fill="#4608AD" fill-opacity="0.25"/>
<rect x="476" y="211" width="130" height="12" fill="#4608AD" fill-opacity="0.25"/>
<circle cx="144.5" cy="45.5" r="12.5" fill="#A283D6"/>
<circle cx="97.5" cy="45.5" r="12.5" fill="#A283D6"/>
<circle cx="50.5" cy="45.5" r="12.5" fill="#4608AD"/>
</svg>
