<svg xmlns="http://www.w3.org/2000/svg" width="61" height="40" fill="none" viewBox="0 0 61 40"><path fill="#5EC1EC" d="M60.75 35C60.75 37.75 58.5 40 55.75 40H5.75C3 40 0.75 37.75 0.75 35V5C0.75 2.25 3 0 5.75 0H55.75C58.5 0 60.75 2.25 60.75 5V35Z"/><path fill="#5BBBE6" d="M59.281 1.46899C60.187 2.37499 60.75 3.625 60.75 5V20V35C60.75 36.375 60.188 37.625 59.281 38.531C58.374 39.437 57.125 40 55.75 40H30.75H5.75C4.375 40 3.12499 39.438 2.21899 38.531L59.281 1.46899Z"/><path fill="#fff" d="M18.305 24.922L17.848 23.182H14.833L14.363 24.922H11.608L14.636 15.604H17.981L21.046 24.922H18.305ZM17.328 21.125L16.928 19.602C16.834 19.264 16.722 18.827 16.588 18.289C16.455 17.751 16.367 17.366 16.324 17.134C16.287 17.35 16.211 17.705 16.099 18.2C15.987 18.695 15.738 19.671 15.353 21.126L17.328 21.125Z"/><path fill="#fff" d="M26.094 24.922L24.196 18.237H24.139C24.228 19.375 24.272 20.259 24.272 20.891V24.921H22.051V15.64H25.389L27.326 22.23H27.377L29.274 15.64H32.62V24.921H30.315V20.852C30.315 20.641 30.319 20.407 30.325 20.148C30.331 19.889 30.36 19.257 30.411 18.25H30.354L28.481 24.922H26.094V24.922Z"/><path fill="#fff" d="M39.869 24.922H34.359V15.641H39.869V17.654H36.865V19.114H39.646V21.126H36.865V22.878H39.869V24.922Z"/><path fill="#fff" d="M49.854 24.922H46.954L45.143 22.022L43.354 24.922H40.516L43.594 20.174L40.699 15.641H43.48L45.156 18.51L46.767 15.641H49.63L46.691 20.37L49.854 24.922Z"/><path fill="#fff" d="M18.305 24.922L17.848 23.182H14.833L14.363 24.922H11.608L14.636 15.604H17.981L21.046 24.922H18.305ZM17.328 21.125L16.928 19.602C16.834 19.264 16.722 18.827 16.588 18.289C16.455 17.751 16.367 17.366 16.324 17.134C16.287 17.35 16.211 17.705 16.099 18.2C15.987 18.695 15.738 19.671 15.353 21.126L17.328 21.125Z"/><path fill="#fff" d="M26.094 24.922L24.196 18.237H24.139C24.228 19.375 24.272 20.259 24.272 20.891V24.921H22.051V15.64H25.389L27.326 22.23H27.377L29.274 15.64H32.62V24.921H30.315V20.852C30.315 20.641 30.319 20.407 30.325 20.148C30.331 19.889 30.36 19.257 30.411 18.25H30.354L28.481 24.922H26.094V24.922Z"/><path fill="#fff" d="M39.869 24.922H34.359V15.641H39.869V17.654H36.865V19.114H39.646V21.126H36.865V22.878H39.869V24.922Z"/><path fill="#fff" d="M49.854 24.922H46.954L45.143 22.022L43.354 24.922H40.516L43.594 20.174L40.699 15.641H43.48L45.156 18.51L46.767 15.641H49.63L46.691 20.37L49.854 24.922Z"/><path fill="#9BCEE0" d="M55.75 1C57.956 1 59.75 2.794 59.75 5V35C59.75 37.206 57.956 39 55.75 39H5.75C3.544 39 1.75 37.206 1.75 35V5C1.75 2.794 3.544 1 5.75 1H55.75ZM55.75 0H5.75C3 0 0.75 2.25 0.75 5V35C0.75 37.75 3 40 5.75 40H55.75C58.5 40 60.75 37.75 60.75 35V5C60.75 2.25 58.5 0 55.75 0Z"/></svg>