<svg xmlns="http://www.w3.org/2000/svg" width="61" height="40" fill="none" viewBox="0 0 61 40"><path fill="#F3F4F4" d="M60.75 35C60.75 37.75 58.5 40 55.75 40H5.75C3 40 0.75 37.75 0.75 35V5C0.75 2.25 3 0 5.75 0H55.75C58.5 0 60.75 2.25 60.75 5V35Z"/><path fill="#009FDA" d="M27.584 30C33.1068 30 37.584 25.5228 37.584 20C37.584 14.4772 33.1068 10 27.584 10C22.0611 10 17.584 14.4772 17.584 20C17.584 25.5228 22.0611 30 27.584 30Z"/><path fill="#009FDA" d="M26.75 10C31.75 10 36.749 14.478 36.749 20C36.749 25.521 31.75 30 26.75 30V10Z"/><path fill="#009FDA" d="M26.75 30V10H33.917C38.917 10 43.916 14.478 43.916 20C43.916 25.521 38.917 30 33.917 30H26.75Z"/><path fill="#F3F4F4" d="M27.584 29.438C32.7964 29.438 37.022 25.2125 37.022 20C37.022 14.7875 32.7964 10.562 27.584 10.562C22.3715 10.562 18.146 14.7875 18.146 20C18.146 25.2125 22.3715 29.438 27.584 29.438Z"/><path fill="#009FDA" d="M32.188 20C32.188 17.273 29.75 14.992 27.75 14.391V25.609C29.75 25.008 32.188 22.729 32.188 20Z"/><path fill="#009FDA" d="M20.312 20C20.312 22.727 22.75 25.008 24.75 25.609V14.39C22.75 14.992 20.312 17.272 20.312 20Z"/><path fill="#fff" d="M59.281 1.46899C60.187 2.37499 60.75 3.625 60.75 5V20V35C60.75 36.375 60.188 37.625 59.281 38.531C58.374 39.437 57.125 40 55.75 40H30.75H5.75C4.375 40 3.12499 39.438 2.21899 38.531L59.281 1.46899Z" opacity=".08"/><path fill="#F8F8F9" d="M55.75 1C57.956 1 59.75 2.794 59.75 5V35C59.75 37.206 57.956 39 55.75 39H5.75C3.544 39 1.75 37.206 1.75 35V5C1.75 2.794 3.544 1 5.75 1H55.75ZM55.75 0H5.75C3 0 0.75 2.25 0.75 5V35C0.75 37.75 3 40 5.75 40H55.75C58.5 40 60.75 37.75 60.75 35V5C60.75 2.25 58.5 0 55.75 0Z"/></svg>