<svg width="61" height="40" viewBox="0 0 61 40" fill="none" xmlns="http://www.w3.org/2000/svg">
<path d="M60.75 35C60.75 37.75 58.5 40 55.75 40H5.75C3 40 0.75 37.75 0.75 35V5C0.75 2.25 3 0 5.75 0H55.75C58.5 0 60.75 2.25 60.75 5V35Z" fill="#FFF9F0"/>
<path d="M15.885 19.943C15.885 20.945 15.6 21.712 15.031 22.245C14.46 22.777 13.636 23.044 12.559 23.044H10.835V16.959H12.745C13.739 16.959 14.51 17.222 15.058 17.746C15.61 18.27 15.885 19.003 15.885 19.943ZM14.545 19.977C14.545 18.67 13.967 18.017 12.815 18.017H12.127V21.978H12.681C13.924 21.979 14.545 21.311 14.545 19.977Z" fill="#414042"/>
<path d="M16.976 23.044V16.959H18.266V23.044H16.976Z" fill="#414042"/>
<path d="M23.391 21.354C23.391 21.905 23.194 22.336 22.797 22.653C22.401 22.969 21.852 23.129 21.147 23.129C20.499 23.129 19.923 23.006 19.423 22.763V21.564C19.834 21.749 20.182 21.876 20.466 21.953C20.75 22.027 21.011 22.064 21.247 22.064C21.529 22.064 21.747 22.009 21.898 21.902C22.046 21.795 22.125 21.632 22.125 21.42C22.125 21.301 22.092 21.195 22.024 21.102C21.959 21.008 21.86 20.918 21.73 20.833C21.601 20.748 21.338 20.609 20.942 20.421C20.571 20.246 20.293 20.077 20.105 19.917C19.918 19.757 19.771 19.57 19.66 19.355C19.549 19.14 19.494 18.89 19.494 18.605C19.494 18.067 19.676 17.644 20.041 17.336C20.407 17.027 20.91 16.874 21.555 16.874C21.871 16.874 22.173 16.911 22.46 16.986C22.747 17.06 23.048 17.167 23.361 17.302L22.945 18.305C22.62 18.172 22.35 18.077 22.138 18.026C21.925 17.974 21.716 17.947 21.512 17.947C21.267 17.947 21.079 18.003 20.95 18.118C20.819 18.232 20.754 18.38 20.754 18.563C20.754 18.677 20.78 18.775 20.833 18.861C20.886 18.946 20.97 19.027 21.085 19.106C21.2 19.185 21.474 19.327 21.903 19.533C22.471 19.805 22.861 20.078 23.073 20.351C23.285 20.622 23.391 20.957 23.391 21.354Z" fill="#414042"/>
<path d="M27.078 17.945C26.592 17.945 26.217 18.129 25.95 18.492C25.682 18.857 25.551 19.367 25.551 20.018C25.551 21.374 26.06 22.053 27.078 22.053C27.506 22.053 28.021 21.949 28.631 21.733V22.815C28.131 23.024 27.573 23.127 26.957 23.127C26.072 23.127 25.395 22.857 24.926 22.32C24.457 21.784 24.223 21.013 24.223 20.008C24.223 19.375 24.339 18.821 24.57 18.346C24.799 17.868 25.131 17.505 25.562 17.251C25.995 16.997 26.5 16.87 27.08 16.87C27.671 16.87 28.266 17.013 28.861 17.299L28.445 18.348C28.216 18.24 27.989 18.146 27.757 18.065C27.526 17.984 27.3 17.945 27.078 17.945Z" fill="#414042"/>
<path d="M38.959 16.959H40.262L38.195 23.044H36.788L34.724 16.959H36.028L37.173 20.58C37.236 20.795 37.304 21.042 37.371 21.328C37.437 21.613 37.48 21.808 37.498 21.92C37.528 21.665 37.632 21.221 37.81 20.58L38.959 16.959Z" fill="#414042"/>
<path d="M44.532 23.044H41.027V16.959H44.532V18.017H42.317V19.353H44.379V20.41H42.317V21.978H44.532V23.044Z" fill="#414042"/>
<path d="M47.092 20.709V23.044H45.802V16.959H47.575C48.402 16.959 49.013 17.109 49.411 17.411C49.807 17.712 50.006 18.168 50.006 18.782C50.006 19.139 49.907 19.459 49.711 19.737C49.514 20.016 49.235 20.235 48.875 20.393C49.79 21.759 50.386 22.644 50.664 23.043H49.232L47.779 20.708L47.092 20.709ZM47.092 19.66H47.509C47.916 19.66 48.218 19.592 48.412 19.457C48.605 19.32 48.703 19.106 48.703 18.815C48.703 18.526 48.603 18.322 48.405 18.199C48.207 18.076 47.9 18.016 47.484 18.016H47.09L47.092 19.66Z" fill="#414042"/>
<path d="M31.816 23.045C33.4966 23.045 34.859 21.6826 34.859 20.002C34.859 18.3214 33.4966 16.959 31.816 16.959C30.1354 16.959 28.773 18.3214 28.773 20.002C28.773 21.6826 30.1354 23.045 31.816 23.045Z" fill="#E6A124"/>
<path d="M60.75 27.5V35C60.75 35.688 60.609 36.344 60.355 36.941C60.1 37.538 59.734 38.078 59.281 38.531C58.828 38.984 58.289 39.35 57.691 39.605C57.092 39.859 56.437 40 55.75 40H33.293H10.836L60.75 27.5Z" fill="#E6A124"/>
<path opacity="0.08" d="M59.281 1.46899C60.187 2.37499 60.75 3.625 60.75 5V20V35C60.75 36.375 60.188 37.625 59.281 38.531C58.374 39.437 57.125 40 55.75 40H30.75H5.75C4.375 40 3.12499 39.438 2.21899 38.531L59.281 1.46899Z" fill="white"/>
<path d="M55.75 1C57.956 1 59.75 2.794 59.75 5V35C59.75 37.206 57.956 39 55.75 39H5.75C3.544 39 1.75 37.206 1.75 35V5C1.75 2.794 3.544 1 5.75 1H55.75ZM55.75 0H5.75C3 0 0.75 2.25 0.75 5V35C0.75 37.75 3 40 5.75 40H55.75C58.5 40 60.75 37.75 60.75 35V5C60.75 2.25 58.5 0 55.75 0Z" fill="#F7F5F2"/>
</svg>
