<svg width="61" height="40" viewBox="0 0 61 40" fill="none" xmlns="http://www.w3.org/2000/svg">
<path d="M60.75 35C60.75 37.75 58.5 40 55.75 40H5.75C3 40 0.75 37.75 0.75 35V5C0.75 2.25 3 0 5.75 0H55.75C58.5 0 60.75 2.25 60.75 5V35Z" fill="#F3F4F4"/>
<path d="M17.75 30H9.75V15C9.75 12.238 12.988 10 15.75 10H21.75V25C21.75 27.762 20.512 30 17.75 30Z" fill="#5565AF"/>
<path d="M31.75 30H23.75V15C23.75 12.238 26.988 10 29.75 10H35.75V25C35.75 27.762 34.512 30 31.75 30Z" fill="#EA564B"/>
<path d="M45.75 30H37.75V15C37.75 12.238 40.988 10 43.75 10H49.75V25C49.75 27.762 48.512 30 45.75 30Z" fill="#99CD76"/>
<path opacity="0.08" d="M59.281 1.46899C60.187 2.37499 60.75 3.625 60.75 5V20V35C60.75 36.375 60.188 37.625 59.281 38.531C58.374 39.437 57.125 40 55.75 40H30.75H5.75C4.375 40 3.12499 39.438 2.21899 38.531L59.281 1.46899Z" fill="white"/>
<path d="M55.75 1C57.956 1 59.75 2.794 59.75 5V35C59.75 37.206 57.956 39 55.75 39H5.75C3.544 39 1.75 37.206 1.75 35V5C1.75 2.794 3.544 1 5.75 1H55.75ZM55.75 0H5.75C3 0 0.75 2.25 0.75 5V35C0.75 37.75 3 40 5.75 40H55.75C58.5 40 60.75 37.75 60.75 35V5C60.75 2.25 58.5 0 55.75 0Z" fill="#F8F8F9"/>
</svg>
