<svg width="61" height="40" viewBox="0 0 61 40" fill="none" xmlns="http://www.w3.org/2000/svg">
<path d="M60.75 35C60.75 37.75 58.5 40 55.75 40H5.75C3 40 0.75 37.75 0.75 35V5C0.75 2.25 3 0 5.75 0H55.75C58.5 0 60.75 2.25 60.75 5V35Z" fill="#5565AF"/>
<path opacity="0.04" d="M59.281 1.46899C60.187 2.37499 60.75 3.625 60.75 5V20V35C60.75 36.375 60.188 37.625 59.281 38.531C58.374 39.437 57.125 40 55.75 40H30.75H5.75C4.375 40 3.12499 39.438 2.21899 38.531L59.281 1.46899Z" fill="white"/>
<path d="M30.75 13.4C28.917 11.32 26.24 10 23.25 10C17.728 10 13.25 14.477 13.25 20C13.25 25.521 17.728 30 23.25 30C26.24 30 28.917 28.68 30.75 26.599C29.198 24.837 28.25 22.534 28.25 20C28.25 17.466 29.198 15.162 30.75 13.4Z" fill="#EA564B"/>
<path d="M30.75 13.4C29.198 15.162 28.25 17.467 28.25 20C28.25 22.533 29.198 24.837 30.75 26.599C32.302 24.837 33.25 22.534 33.25 20C33.25 17.466 32.302 15.162 30.75 13.4Z" fill="#EA564B"/>
<path d="M38.25 10C35.26 10 32.583 11.32 30.75 13.4C30.317 13.892 29.938 14.43 29.606 15H31.894C32.258 15.625 32.541 16.299 32.765 17H28.721C28.518 17.643 28.371 18.309 28.302 19H33.181C33.215 19.33 33.249 19.66 33.249 20C33.249 20.338 33.229 20.671 33.196 21H28.301C28.37 21.691 28.517 22.357 28.72 23H32.776C32.553 23.704 32.254 24.372 31.89 25H29.605C29.936 25.568 30.316 26.107 30.749 26.599C32.582 28.68 35.259 30 38.249 30C43.771 30 48.249 25.521 48.249 20C48.25 14.477 43.772 10 38.25 10Z" fill="#E9D419"/>
<path d="M55.75 1C57.956 1 59.75 2.794 59.75 5V35C59.75 37.206 57.956 39 55.75 39H5.75C3.544 39 1.75 37.206 1.75 35V5C1.75 2.794 3.544 1 5.75 1H55.75ZM55.75 0H5.75C3 0 0.75 2.25 0.75 5V35C0.75 37.75 3 40 5.75 40H55.75C58.5 40 60.75 37.75 60.75 35V5C60.75 2.25 58.5 0 55.75 0Z" fill="#7684B7"/>
</svg>
