<svg width="61" height="40" viewBox="0 0 61 40" fill="none" xmlns="http://www.w3.org/2000/svg">
<path d="M60.75 35C60.75 37.75 58.5 40 55.75 40H5.75C3 40 0.75 37.75 0.75 35V5C0.75 2.25 3 0 5.75 0H55.75C58.5 0 60.75 2.25 60.75 5V35Z" fill="#F3F4F4"/>
<path d="M1.75 10V5C1.75 2.25 4 0 6.75 0H54.75C57.5 0 59.75 2.25 59.75 5V10" fill="#5565AF"/>
<path d="M59.75 30V35C59.75 37.75 57.5 39 54.75 39H6.75C4 39 1.75 37.75 1.75 35V30" fill="#E6A124"/>
<path d="M18.137 23.379C18.543 22.229 18.828 21.492 18.996 21.168L22.371 14.293H24.84L18.996 25.715H16.387L15.395 14.293H17.7L18.098 21.168C18.118 21.402 18.129 21.75 18.129 22.207C18.117 22.744 18.102 23.135 18.082 23.379H18.137Z" fill="#5565AF"/>
<path d="M23.809 25.715L26.247 14.293H28.63L26.192 25.715H23.809Z" fill="#5565AF"/>
<path d="M35.934 22.34C35.934 23.43 35.547 24.289 34.778 24.922C34.007 25.555 32.962 25.871 31.645 25.871C30.493 25.871 29.567 25.637 28.864 25.168V23.027C29.868 23.589 30.802 23.871 31.661 23.871C32.243 23.871 32.7 23.762 33.028 23.539C33.356 23.318 33.52 23.016 33.52 22.629C33.52 22.406 33.485 22.209 33.415 22.039C33.345 21.871 33.243 21.713 33.114 21.566C32.983 21.42 32.661 21.156 32.145 20.769C31.426 20.252 30.92 19.744 30.629 19.237C30.336 18.732 30.191 18.188 30.191 17.604C30.191 16.932 30.351 16.333 30.675 15.803C30.997 15.275 31.456 14.864 32.054 14.569C32.65 14.275 33.335 14.128 34.113 14.128C35.242 14.128 36.277 14.386 37.215 14.901L36.363 16.721C35.551 16.336 34.801 16.143 34.113 16.143C33.679 16.143 33.326 16.26 33.051 16.495C32.774 16.729 32.637 17.04 32.637 17.425C32.637 17.743 32.723 18.021 32.895 18.257C33.067 18.494 33.452 18.808 34.051 19.198C34.68 19.615 35.153 20.075 35.465 20.577C35.777 21.082 35.934 21.668 35.934 22.34Z" fill="#5565AF"/>
<path d="M43.598 22.996H39.903L38.559 25.715H36.059L42.043 14.246H44.957L46.105 25.715H43.785L43.598 22.996ZM43.48 20.965L43.277 18.231C43.224 17.549 43.199 16.89 43.199 16.254V15.973C42.969 16.598 42.685 17.26 42.347 17.957L40.878 20.965H43.48Z" fill="#5565AF"/>
<path opacity="0.04" d="M59.281 1.46899C60.187 2.37499 60.75 3.625 60.75 5V20V35C60.75 36.375 60.188 37.625 59.281 38.531C58.374 39.437 57.125 40 55.75 40H30.75H5.75C4.375 40 3.12499 39.438 2.21899 38.531L59.281 1.46899Z" fill="white"/>
<path d="M55.75 1C57.956 1 59.75 2.794 59.75 5V35C59.75 37.206 57.956 39 55.75 39H5.75C3.544 39 1.75 37.206 1.75 35V5C1.75 2.794 3.544 1 5.75 1H55.75ZM55.75 0H5.75C3 0 0.75 2.25 0.75 5V35C0.75 37.75 3 40 5.75 40H55.75C58.5 40 60.75 37.75 60.75 35V5C60.75 2.25 58.5 0 55.75 0Z" fill="#F8F8F9"/>
</svg>
