<svg xmlns="http://www.w3.org/2000/svg" width="2271" height="546" fill="none" viewBox="0 0 2271 546"><path fill="#000" fill-rule="evenodd" d="M373.462 11.4712H591.963V534.542L373.462 11.4712ZM219.537 11.4712H0.879272V534.542L219.537 11.4712ZM296.512 204.241L435.73 534.542H344.5L302.867 429.344H200.964L296.512 204.241Z" clip-rule="evenodd"/><path fill="#000" fill-rule="evenodd" d="M888.684 394.397L857.556 539.114H785.963L904.248 14.6423H989.057L1100.34 539.114H1027.97L997.617 394.397H888.684ZM989.057 336.033L964.933 210.732C957.929 174.936 950.926 128.27 945.491 90.9045H942.366C936.931 129.036 929.124 177.27 922.146 210.732L897.244 336.033H989.057ZM1373.61 0.647888V441.853C1373.61 470.659 1375.17 512.681 1376.71 539.127H1313.69L1309.02 493.227H1306.69C1294.24 519.672 1265.44 545.365 1227.32 545.365C1157.29 545.365 1114.49 469.09 1114.49 351.61C1114.49 217.762 1171.28 154.729 1231.22 154.729C1261.55 154.729 1285.68 168.749 1298.9 197.529H1300.46V0.647888H1373.61V0.647888ZM1300.45 304.906C1300.45 297.915 1300.45 289.355 1299.67 281.547C1295.78 247.32 1276.32 217.749 1249.88 217.749C1203.95 217.749 1188.4 281.547 1188.4 351.597C1188.4 429.415 1208.63 483.875 1247.54 483.875C1263.89 483.875 1285.66 475.315 1298.11 430.194C1299.67 423.968 1300.45 414.617 1300.45 406.083V304.906V304.906ZM1547.85 545.352C1472.38 545.352 1417.89 480.763 1417.89 350.832C1417.89 213.08 1482.47 154.716 1551.72 154.716C1626.43 154.716 1680.11 221.64 1680.11 349.262C1680.11 499.452 1606.18 545.352 1548.61 545.352H1547.85ZM1550.17 487.779C1595.29 487.779 1605.42 407.626 1605.42 350.053C1605.42 293.233 1595.3 212.314 1548.62 212.314C1500.36 212.314 1491.04 293.233 1491.04 350.053C1491.04 413.073 1501.93 487.779 1549.4 487.779H1550.17ZM1724.21 0.647888H1797.35V203.741H1798.9C1818.36 169.514 1844.81 154.716 1878.28 154.716C1942.85 154.716 1983.33 227.865 1983.33 343.815C1983.33 479.206 1928.08 545.352 1865.83 545.352C1828.47 545.352 1807.46 525.106 1791.11 491.644H1788.02L1784.12 539.114H1721.1C1722.65 513.447 1724.21 470.646 1724.21 441.84V0.647888V0.647888ZM1797.35 405.266C1797.35 413.852 1798.12 422.412 1800.46 428.624C1812.12 474.55 1834.7 483.875 1849.47 483.875C1893.05 483.875 1909.39 426.303 1909.39 348.484C1909.39 276.113 1892.28 217.749 1848.69 217.749C1824.57 217.749 1805.11 246.542 1799.67 273.778C1798.11 281.56 1797.33 291.689 1797.33 299.458V405.266H1797.35V405.266ZM2091.27 364.813C2092.04 462.086 2134.05 486.197 2178.41 486.197C2204.87 486.197 2227.44 479.984 2243.78 472.19L2254.67 525.106C2232.11 536.779 2197.86 543.018 2164.4 543.018C2069.48 543.018 2019.67 471.424 2019.67 354.697C2019.67 230.965 2076.47 154.703 2155.06 154.703C2233.66 154.703 2270.24 230.187 2270.24 325.138C2270.24 343.802 2269.44 355.488 2268.68 365.591L2091.27 364.813V364.813ZM2200.98 312.688C2201.76 245.764 2178.41 209.98 2149.63 209.98C2111.49 209.98 2094.37 265.231 2092.04 312.688H2200.98Z" clip-rule="evenodd"/></svg>