<svg xmlns="http://www.w3.org/2000/svg" width="980" height="420" viewBox="0 0 980 420">
  <path d="M143.4,142.50677 C137.9,134.817197 132,128.625592 132,114.444821 L132,67.2088693 C132,47.2359513 133.4,28.8608666 118.7,15.0795531 C107,3.89471903 87.8,0 73,0 C44.2,0 12,10.6855112 5.2,46.3371699 C4.5,50.1320244 7.3,52.1293162 9.7,52.7285037 L39.2,55.9241706 C41.9,55.824306 43.9,53.1279621 44.4,50.4316181 C46.9,38.1482735 57.2,32.2562627 68.8,32.2562627 C75,32.2562627 82.1,34.5531483 85.8,40.1455653 C90,46.3371699 89.5,54.9255247 89.5,62.1157752 L89.5,66.0104942 C71.9,68.0077861 49,69.3060257 32.5,76.5961408 C13.4,84.5853081 0,101.362559 0,125.929248 C0,157.386594 19.9,173.1652 45.4,173.1652 C67,173.1652 78.8,168.072106 95.4,151.095125 C100.9,159.084292 102.7,162.979012 112.8,171.267773 C115.1,172.466148 118,172.366283 120,170.56872 L120.1,170.56872 C126.1,165.275897 137.1,155.589032 143.3,150.495938 C145.8,148.498646 145.3,145.203114 143.4,142.50677 Z M89.4,96.7687881 C89.4,108.55281 89.7,118.439404 83.7,128.925186 C78.9,137.413676 71.3,142.7065 62.7,142.7065 C51.1,142.7065 44.3,133.918416 44.3,120.73629 C44.3,94.9712255 67.5,90.2775897 89.3,90.2775897 L89.3,96.7687881 L89.4,96.7687881 Z M167.1,165.875085 L167.1,10.3859174 C167.1,7.2901151 169.7,4.79350034 173,4.79350034 L201.3,4.79350034 C204.2,4.89336493 206.6,7.19025051 206.8,9.98645904 L206.8,30.2589709 L207.3,30.2589709 C214.7,10.5856466 228.6,1.49796886 247.3,1.49796886 C266.3,1.49796886 278.2,10.6855112 286.7,30.2589709 C294.1,10.5856466 310.7,1.49796886 328.6,1.49796886 C341.3,1.49796886 355.2,6.79079215 363.7,18.4749492 C373.3,31.5572106 371.3,50.5314827 371.3,67.2088693 L371.3,165.275897 C371.3,168.371699 368.7,170.868314 365.5,170.868314 L335,170.868314 C332,170.56872 329.5,168.271835 329.5,165.275897 L329.5,82.88761 C329.5,76.2965471 330.1,60.0186188 328.6,53.7271496 C326.3,43.2413676 319.6,40.3452945 310.8,40.3452945 C303.5,40.3452945 295.8,45.2386594 292.7,53.1279621 C289.6,60.9174001 289.9,74.0995261 289.9,82.88761 L289.9,165.275897 C289.9,168.371699 287.3,170.868314 284,170.868314 L253.7,170.868314 C250.6,170.56872 248.2,168.271835 248.2,165.275897 L248.2,82.88761 C248.2,65.5111713 251,40.0457007 229.5,40.0457007 C207.7,40.0457007 208.6,64.9119838 208.6,82.88761 L208.6,165.275897 C208.6,168.371699 206,170.868314 202.8,170.868314 L172.5,170.868314 C169.6,170.76845 167.3,168.671293 167.1,165.875085 Z M608,230.687204 C551,272.630332 468.6,295 397.5,295 C297.9,295 208.2,258.149966 140.3,196.932972 C135,192.139472 139.7,185.548409 146.1,189.343263 C219.3,231.885579 309.9,257.450914 403.4,257.450914 C466.5,257.450914 535.9,244.468517 599.7,217.405213 C609.4,213.310765 617.4,223.696682 608,230.687204 Z M680.5,137.513541 L680.5,161.281313 C680.5,164.47698 677,168.371699 673.2,166.374408 C642.5,150.296209 601.9,148.498646 567.9,166.474272 C564.5,168.371699 560.8,164.67671 560.8,161.381178 L560.8,138.811781 C560.8,135.216655 560.8,129.025051 564.5,123.532498 L624.4,37.8486798 L572.3,37.8486798 C569.1,37.8486798 566.5,35.5517942 566.5,32.2562627 L566.5,9.98645904 C566.5,6.59106297 569,4.39404198 572.1,4.39404198 L671.8,4.39404198 C675,4.39404198 677.6,6.69092756 677.6,9.98645904 L677.6,29.0605958 C677.6,32.2562627 674.9,36.4505755 670.1,43.0416385 L618.4,116.641842 C637.6,116.142519 657.9,119.038592 675.3,128.825322 C679.1,131.122207 680.2,134.317874 680.5,137.513541 Z M487,65.9106297 C469.4,67.9079215 446.4,69.2061611 430,76.3964116 C411,84.5853081 397.7,101.362559 397.7,125.929248 C397.7,157.386594 417.5,173.1652 443,173.1652 C464.5,173.1652 476.4,168.072106 493,151.095125 C498.5,159.084292 500.3,162.979012 510.4,171.267773 C512.7,172.466148 515.6,172.366283 517.6,170.56872 L517.6,170.56872 C523.7,165.275897 534.7,155.589032 540.8,150.495938 C543.2,148.498646 542.9,145.203114 540.9,142.50677 C535.4,134.817197 529.5,128.625592 529.5,114.444821 L529.5,67.2088693 C529.5,47.2359513 530.9,28.8608666 516.1,15.0795531 C504.5,3.89471903 485.2,0 470.4,0 C441.6,0 409.3,10.6855112 402.6,46.3371699 C401.9,50.1320244 404.6,52.1293162 407.1,52.7285037 L436.5,55.9241706 C439.2,55.824306 441.3,53.1279621 441.8,50.3317536 C444.3,38.0484089 454.6,32.1563981 466.2,32.1563981 C472.4,32.1563981 479.5,34.4532837 483.2,40.0457007 C487.5,46.2373053 486.9,54.8256601 486.9,62.0159106 L487,65.9106297 L487,65.9106297 Z M487,96.7687881 C487,108.55281 487.3,118.439404 481.3,128.925186 C476.5,137.413676 468.8,142.7065 460.4,142.7065 C448.7,142.7065 441.9,133.918416 441.9,120.73629 C441.9,94.9712255 465.1,90.2775897 487,90.2775897 L487,96.7687881 L487,96.7687881 Z M763.3,1.49796886 C719.4,1.49796886 695.1,39.1469194 695.1,87.4813812 C695.1,135.516249 719.1,174.163846 763.3,174.163846 C805.7,174.163846 832.7,136.514895 832.7,89.1790792 C832.8,40.1455653 808.4,1.49796886 763.3,1.49796886 Z M763.3,142.207177 C739.5,142.207177 739.8,101.662153 739.8,82.6878808 C739.8,63.7136087 741.2,33.3547732 763.5,33.3547732 C773.1,33.3547732 780,37.549086 783.3,48.4343263 C787.3,60.8175355 787.8,76.4962762 787.8,89.6784022 C788,109.451591 786.9,142.207177 763.3,142.207177 Z M972.1,19.8730535 C980,32.3561273 980,53.2278267 980,68.3073798 L980,166.174678 C979.6,168.871022 977.1,171.068043 974.1,171.068043 L943.7,171.068043 C941,170.76845 938.6,168.771158 938.3,166.174678 L938.3,81.7890995 C938.3,64.8121192 940.3,39.9458362 919.4,39.9458362 C912,39.9458362 905.2,44.8392011 901.9,52.3290454 C897.6,61.8161814 897,71.3033175 897,81.7890995 L897,165.475626 C897,168.571429 894.3,171.167908 891.1,171.167908 L860.9,171.167908 C857.8,170.968179 855.4,168.471564 855.4,165.475626 L855.4,9.98645904 C855.7,7.09038592 858.2,4.89336493 861.3,4.89336493 L889.4,4.89336493 C892,4.99322952 894.3,6.79079215 894.8,9.28740691 L894.8,33.0551794 L895.3,33.0551794 C903.7,11.7840217 915.7,1.69769804 936.6,1.69769804 C950.2,1.49796886 963.5,6.49119838 972.1,19.8730535 Z M655.9,185.148951 C662.1,192.938389 654.3,246.365944 623.7,271.831415 C619,275.726134 614.5,273.628978 616.6,268.436019 C623.5,251.359174 638.9,212.911307 631.6,203.6239 C624.4,194.336493 583.5,199.229858 565.2,201.426879 C559.6,202.125931 558.8,197.232566 563.8,193.737305 C596.3,170.868314 649.7,177.459377 655.9,185.148951 Z" transform="translate(0 124)"/>
</svg>
