<svg xmlns="http://www.w3.org/2000/svg" width="980" height="394" fill="none" viewBox="0 0 980 394"><path fill="#000" d="M927.2 95.3L843.8 262.7L760.2 95.3H702L716.9 123.2C697.2 93.8 658.3 86.3 622.8 86.3C518.8 86.3 512.2 143.2 512.2 152.3H564C564 152.3 566.7 119.1 619.3 119.1C653.5 119.1 680 134.8 680 164.8V175.5H619.3C552.1 175.5 511.3 191.9 499.6 225.2C500.8 217.8 501.5 210.2 501.5 202.3C501.5 138.4 458.4 87 385.6 87C317.4 87 296.2 123.8 296.2 123.8V0.700012H246.2V188.1C245.5 147.3 219 86.3 126.7 86.3C57.6 86.3 0 115.7 0 204.1C0 274.2 38.7 318.3 128.5 318.3C234.2 318.3 240.9 248.7 240.9 248.7H189.7C189.7 248.7 178.7 286.2 125.3 286.2C81.8 286.2 50.5 256.8 50.5 215.7H246.1V273.9C246.1 289.4 245 311.2 245 311.2H294C294 311.2 295.7 295.6 295.7 281.3C295.7 281.3 319.8 319.1 385.4 319.1C441.3 319.1 482.8 287.6 496.5 239.2C496.2 241.7 496.1 244.4 496.1 247.1C496.1 294.2 535.4 319.8 588.6 319.8C661.1 319.8 684.4 279.7 684.4 279.7C684.4 295.6 685.6 311.3 685.6 311.3H731.6C731.6 311.3 729.8 291.9 729.8 279.4V171.7C729.8 157.3 727.4 145.3 723.2 135.2L816.4 310.2L772.6 393.3H827.9L980 95.3H927.2ZM51.8 182.7C51.8 142.3 88.6 119.3 125 119.3C166.4 119.3 194.6 144.7 194.6 182.7H51.8ZM373.3 285.2C323.2 285.2 296.2 246.1 296.2 202.7C296.2 162.3 320.4 120.7 372.9 120.7C419.8 120.7 449.7 155.5 449.7 202.3C449.7 252.5 415.3 285.2 373.3 285.2ZM680 222C680 240.6 668.5 286.9 600.9 286.9C563.8 286.9 548 268.4 548 247C548 208 601.5 207.7 680.1 207.7L680 222Z"/></svg>