<svg xmlns="http://www.w3.org/2000/svg" width="1000" height="328" viewBox="0 0 1000 328"><g><path d="M245.85118 115.7924L129.16241 115.7924 129.16241 150.41815 211.91795 150.41815C207.8297 198.97274 167.43382 219.67927 129.30233 219.67927 80.51709 219.67927 37.94727 181.29524 37.94727 127.49491 37.94727 75.08572 78.52746 34.72307 129.41009 34.72307 168.66655 34.72307 191.79846 59.74845 191.79846 59.74845L216.04264 34.64225C216.04264 34.64225 184.92462 1.13686838e-13 128.17094 1.13686838e-13 55.908732 1.13686838e-13-2.84217094e-14 60.99521-2.84217094e-14 126.87791-2.84217094e-14 191.43537 52.59191 254.38886 130.01618 254.38886 198.11515 254.38886 247.96415 207.73837 247.96415 138.75756 247.96415 124.2039 245.85118 115.7924 245.85118 115.7924L245.85118 115.7924zM341.43989 90.71925C293.56024 90.71925 259.24702 128.15125 259.24702 171.80843 259.24702 216.1111 292.52888 254.23935 342.00257 254.23935 386.78968 254.23935 423.48129 220.00772 423.48129 172.76064 423.48129 118.6088 380.80041 90.71925 341.43989 90.71925L341.43989 90.71925zM341.916 122.83463C365.46201 122.83463 387.77348 141.87024 387.77348 172.54422 387.77348 202.56748 365.5558 222.14562 341.80779 222.14562 315.71335 222.14562 295.12796 201.24667 295.12796 172.30618 295.12796 143.98634 315.4581 122.83463 341.916 122.83463L341.916 122.83463zM520.20513 90.71925C472.32546 90.71925 438.01225 128.15125 438.01225 171.80843 438.01225 216.1111 471.29411 254.23935 520.76779 254.23935 565.5549 254.23935 602.24651 220.00772 602.24651 172.76064 602.24651 118.6088 559.56563 90.71925 520.20513 90.71925L520.20513 90.71925zM520.68122 122.83463C544.22723 122.83463 566.5387 141.87024 566.5387 172.54422 566.5387 202.56748 544.32103 222.14562 520.57302 222.14562 494.47857 222.14562 473.89318 201.24667 473.89318 172.30618 473.89318 143.98634 494.22332 122.83463 520.68122 122.83463L520.68122 122.83463zM695.53152 90.80581C651.58324 90.80581 617.03923 129.29777 617.03923 172.50094 617.03923 221.71338 657.08811 254.34756 694.77404 254.34756 718.07635 254.34756 730.46697 245.09778 739.61439 234.48103L739.61439 250.60366C739.61439 278.81199 722.48677 295.70369 696.63518 295.70369 671.66115 295.70369 659.13434 277.13379 654.78131 266.59642L623.35843 279.73257C634.50608 303.30269 656.94575 327.884 696.89487 327.884 740.59008 327.884 773.89388 300.36114 773.89388 242.63973L773.89388 95.71834 739.61439 95.71834 739.61439 109.56864C729.08138 98.21133 714.668 90.80581 695.53152 90.80581zM698.71272 122.85627C720.25971 122.85627 742.38445 141.25422 742.38445 172.67407 742.38445 204.60962 720.30687 222.21053 698.23662 222.21053 674.80689 222.21053 653.00673 203.18608 653.00673 172.97705 653.00673 141.58716 675.64824 122.85627 698.71272 122.85627L698.71272 122.85627zM926.31215 90.61104C884.85633 90.61104 850.04893 123.59385 850.04893 172.26289 850.04893 223.76112 888.84715 254.30428 930.29411 254.30428 964.88686 254.30428 986.11816 235.37957 998.78816 218.42334L970.52486 199.61724C963.19066 210.99924 950.92967 222.12398 930.46723 222.12398 907.48204 222.12398 896.91371 209.53789 890.36625 197.34492L999.99996 151.85533 994.30836 138.52442C983.71306 112.41739 959.00516 90.61104 926.31215 90.61104L926.31215 90.61104zM927.74039 122.05555C942.67857 122.05555 953.42917 129.9977 957.99471 139.51992L884.78286 170.12042C881.62651 146.42924 904.07072 122.05555 927.74039 122.05555z"/><polygon points="797.786 249.448 833.796 249.448 833.796 8.453 797.786 8.453"/></g></svg>