<svg xmlns="http://www.w3.org/2000/svg" width="480" height="155" viewBox="0 0 480 155">
  <g fill="#231F20" transform="translate(46)">
    <polygon points="0 0 75.18 0 75.18 10.75 0 10.75"/>
    <polygon points="0 20.51 75.18 20.51 75.18 31.26 0 31.26"/>
    <polygon points="21.47 40.99 53.72 40.99 53.72 51.77 21.47 51.77"/>
    <polygon points="21.47 61.5 53.72 61.5 53.72 72.22 21.47 72.22"/>
    <polygon points="21.47 82.01 53.72 82.01 53.72 92.72 21.47 92.72"/>
    <polygon points="21.47 102.5 53.72 102.5 53.72 113.25 21.47 113.25"/>
    <polygon points="0 123.02 75.18 123.02 75.18 133.75 0 133.75"/>
    <polygon points="0 143.48 75.18 143.48 75.18 154.23 0 154.23"/>
    <path d="M85.89,20.5 L201.74,20.5 C203.307087,23.9422049 204.487634,27.5475701 205.26,31.25 L85.89,31.25 L85.89,20.5 L85.89,20.5 Z"/>
    <polygon points="107.4 40.99 139.57 40.99 139.57 51.77 107.4 51.77"/>
    <path d="M171.79,40.99 L206.14,40.99 C206.012885,44.6464752 205.407745,48.2705873 204.34,51.77 L171.79,51.77 L171.79,40.99 L171.79,40.99 Z M107.41,82 L190.15,82 C192.83,83.86 197.78,90 199.78,92.7 L107.41,92.7 L107.41,82 L107.41,82 Z"/>
    <polygon points="107.4 102.5 139.57 102.5 139.57 113.25 107.4 113.25"/>
    <path d="M171.79,102.5 L204.47,102.5 C205.18,104.02 206.4,111.14 206.33,113.24 L171.79,113.24 L171.79,102.5 L171.79,102.5 Z M85.89,123.01 L204.98,123.01 C204.346847,126.745018 203.160477,130.364794 201.46,133.75 L85.89,133.75 L85.89,123.01 L85.89,123.01 Z M85.89,143.48 L193.57,143.48 C184.02,151.48 175.57,154.22 160.81,154.22 L85.89,154.22 L85.89,143.48 L85.89,143.48 Z"/>
    <polygon points="236.22 61.5 297.25 61.5 300.66 71.12 304.07 61.5 365.06 61.5 365.06 72.22 332.86 72.22 332.86 63.53 329.79 72.22 271.5 72.22 268.44 63.53 268.44 72.22 236.22 72.22"/>
    <polygon points="236.22 82.01 268.44 82.01 268.44 92.72 236.22 92.72"/>
    <polygon points="236.22 102.5 268.44 102.5 268.44 113.25 236.22 113.25"/>
    <polygon points="214.77 123.02 268.44 123.02 268.44 133.72 214.77 133.72"/>
    <polygon points="214.77 143.48 268.44 143.48 268.44 154.23 214.77 154.23"/>
    <polygon points="325.96 0 386.54 0 386.54 10.75 322.12 10.75"/>
    <polygon points="318.67 20.51 386.54 20.51 386.54 31.26 314.83 31.26"/>
    <polygon points="311.4 40.99 365.06 40.99 365.06 51.77 307.56 51.77"/>
    <polygon points="332.86 82.01 365.06 82.01 365.06 92.72 332.86 92.72"/>
    <polygon points="332.86 102.5 365.06 102.5 365.06 113.25 332.86 113.25"/>
    <polygon points="332.86 123.02 386.54 123.02 386.54 133.72 332.86 133.72"/>
    <polygon points="332.86 143.48 386.54 143.48 386.54 154.23 332.86 154.23"/>
    <polygon points="274.9 82.01 326.4 82.01 322.7 92.72 278.66 92.72"/>
    <polygon points="282.04 102.5 319.29 102.5 315.53 113.25 285.81 113.25"/>
    <polygon points="289.23 123.02 312.12 123.02 308.39 133.72 292.98 133.72"/>
    <polygon points="296.41 143.48 304.98 143.48 301.22 154.23 300.14 154.23"/>
    <path d="M107.41,72.23 L190.15,72.23 C192.83,70.36 197.78,64.23 199.78,61.52 L107.41,61.52 L107.41,72.23 L107.41,72.23 Z"/>
    <polygon points="275.37 0 214.79 0 214.79 10.75 279.21 10.75"/>
    <polygon points="282.68 20.51 214.79 20.51 214.79 31.26 286.5 31.26"/>
    <polygon points="289.94 40.99 236.27 40.99 236.27 51.77 293.77 51.77"/>
    <path d="M85.89,10.75 L193.57,10.75 C184.02,2.75 175.57,0 160.81,0 L85.89,0 L85.89,10.75 L85.89,10.75 Z"/>
  </g>
</svg>
