<svg xmlns="http://www.w3.org/2000/svg" width="384" height="92" viewBox="0 0 384 92">
  <g transform="translate(-1)">
    <g transform="translate(113 20)">
      <path d="M183.72.57L162.61.57C161.171906.561103124 159.941451 1.60062513 159.71 3.02L151.17 56.48C151.09726 56.9839215 151.247588 57.4945372 151.581773 57.8786577 151.915958 58.2627781 152.400861 58.4823135 152.91 58.48L163.74 58.48C164.740566 58.4905667 165.594966 57.7600549 165.74 56.77L168.16 41.61C168.391451 40.1906251 169.621906 39.1511031 171.06 39.16L177.74 39.16C191.65 39.16 199.67 32.51 201.74 19.34 202.68 13.58 201.74 9.05 199.05 5.88 196.11 2.42 190.79.57 183.72.57zM186.16 20.1C185.01 27.58 179.22 27.58 173.62 27.58L170.43 27.58 172.66 13.58C172.798087 12.7279316 173.536837 12.1038157 174.4 12.11L175.86 12.11C179.67 12.11 183.27 12.11 185.13 14.25 186.24 15.57 186.58 17.47 186.16 20.1zM33.13.57L12 .57C10.5619056.561103124 9.331451 1.60062513 9.1 3.02L.56 56.48C.487259831 56.9839215.637588012 57.4945372.971772812 57.8786577 1.30595761 58.2627781 1.79086087 58.4823135 2.3 58.48L12.4 58.48C13.8380944 58.4888969 15.068549 57.4493749 15.3 56.03L17.6 41.61C17.831451 40.1906251 19.0619056 39.1511031 20.5 39.16L27.18 39.16C41.09 39.16 49.11 32.51 51.18 19.34 52.12 13.58 51.18 9.05 48.49 5.88 45.51 2.42 40.19.57 33.13.57zM35.57 20.1C34.42 27.58 28.63 27.58 23.03 27.58L19.84 27.58 22.07 13.58C22.2080875 12.7279316 22.946837 12.1038157 23.81 12.11L25.27 12.11C29.08 12.11 32.68 12.11 34.54 14.25 35.65 15.57 36 17.47 35.56 20.1L35.57 20.1zM96.23 19.86L86.12 19.86C85.256837 19.8538157 84.5180875 20.4779316 84.38 21.33L83.94 24.12 83.23 23.12C81.04 19.98 76.16 18.93 71.29 18.93 60.12 18.93 50.58 27.29 48.72 39.01 47.72 44.86 49.13 50.45 52.48 54.35 55.57 57.93 59.97 59.43 65.21 59.43 70.4555406 59.4914836 75.5037242 57.4325459 79.21 53.72L78.76 56.5C78.6872598 57.0039215 78.837588 57.5145372 79.1717728 57.8986577 79.5059576 58.2827781 79.9908609 58.5023135 80.5 58.5L89.6 58.5C91.0348787 58.5096862 92.2641568 57.475397 92.5 56.06L98 21.87C98.08056 21.3585861 97.9292003 20.8378593 97.5870492 20.4493149 97.2448982 20.0607705 96.747496 19.8447676 96.23 19.86L96.23 19.86zM82.14 39.29C81.2846162 44.8897574 76.3925706 48.9757516 70.73 48.82 68.179197 48.9780594 65.6904746 47.9921002 63.94 46.13 62.3930017 44.1503656 61.8133312 41.582205 62.36 39.13 63.1919261 33.5384288 68.0376226 29.4283544 73.69 29.52 76.2363906 29.3102491 78.7298008 30.3294105 80.4002209 32.2627488 82.070641 34.1960871 82.717115 36.8110165 82.14 39.3L82.14 39.29zM246.83 19.86L236.72 19.86C235.864403 19.863646 235.136889 20.4854167 235 21.33L234.56 24.12 233.85 23.12C231.66 19.98 226.78 18.93 221.91 18.93 210.74 18.93 201.2 27.29 199.34 39.01 198.34 44.86 199.75 50.45 203.1 54.35 206.19 57.93 210.59 59.43 215.83 59.43 221.075541 59.4914836 226.123724 57.4325459 229.83 53.72L229.38 56.5C229.30726 57.0039215 229.457588 57.5145372 229.791773 57.8986577 230.125958 58.2827781 230.610861 58.5023135 231.12 58.5L240.22 58.5C241.666775 58.4952241 242.891909 57.43174 243.1 56L248.57 21.82C248.633521 21.3217654 248.478646 20.820386 248.145196 20.4447752 247.811745 20.0691644 247.332251 19.8559671 246.83 19.86L246.83 19.86zM232.74 39.29C231.884616 44.8897574 226.992571 48.9757516 221.33 48.82 218.779197 48.9780594 216.290475 47.9921002 214.54 46.13 212.993002 44.1503656 212.413331 41.582205 212.96 39.13 213.791926 33.5384288 218.637623 29.4283544 224.29 29.52 226.836391 29.3102491 229.329801 30.3294105 231.000221 32.2627488 232.670641 34.1960871 233.317115 36.8110165 232.74 39.3L232.74 39.29zM150.08 19.86L139.92 19.86C138.95261 19.8667688 138.047851 20.3396263 137.49 21.13L123.49 41.52 117.55 21.93C117.171289 20.6965489 116.030274 19.8560149 114.74 19.86L104.74 19.86C104.174898 19.8526505 103.641428 20.1202116 103.309378 20.5775264 102.977327 21.0348412 102.888065 21.6249356 103.07 22.16L114.26 54.59 103.73 69.26C103.355148 69.7937071 103.310231 70.4922252 103.613641 71.0695465 103.91705 71.6468679 104.517834 72.00604 105.17 72L115.32 72C116.279138 72.0013948 117.178659 71.5348385 117.73 70.75L151.53 22.59C151.900184 22.0550338 151.94102 21.3582465 151.635858 20.7837016 151.330697 20.2091566 150.730518 19.8528348 150.08 19.86L150.08 19.86zM258.75 2L250.08 56.44C250.00726 56.9439215 250.157588 57.4545372 250.491773 57.8386577 250.825958 58.2227781 251.310861 58.4423135 251.82 58.44L260.54 58.44C261.978094 58.4488969 263.208549 57.4093749 263.44 55.99L272 2.58C272.07274 2.0760785 271.922412 1.56546281 271.588227 1.18134235 271.254042.797221887 270.769139.577686506 270.26.58L260.51.58C259.655214.559820262 258.910995 1.16026964 258.75 2L258.75 2z"/>
    </g>
    <path d="M31.87,19.1 C32.616488,18.7441933 33.4330522,18.5596976 34.26,18.56 L57,18.56 C59.6072959,18.5432686 62.2119064,18.7305063 64.79,19.12 C65.4566667,19.2333333 66.1233333,19.36 66.79,19.5 C67.45,19.64 68.09,19.81 68.71,19.99 L69.63,20.27 C69.93,20.37 70.22,20.49 70.51,20.6 C70.97,14.47 69.24,10.2 66.24,6.93 C61.84,2.14 54.12,0 44.14,0 L17.14,0 C15.1153052,-0.00802033048 13.3833505,1.4529194 13.05,3.45 L1,79 C0.88811093,79.7152981 1.0969978,80.4435649 1.57101831,80.9908081 C2.04503882,81.5380513 2.73605601,81.8486981 3.46,81.84 L19.37,81.84 L28.8,23.22 C29.0745382,21.4215977 30.225214,19.8773682 31.87,19.1 Z"/>
    <path d="M68.42,23.85 L67.63,23.61 C67.0833333,23.45 66.5233333,23.31 65.95,23.19 C65.3766667,23.07 64.7766667,22.9566667 64.15,22.85 C61.783782,22.4912954 59.3932193,22.3174363 57,22.33 L35.88,22.33 C35.3405245,22.3299479 34.807745,22.4494818 34.32,22.68 C33.2540613,23.1860207 32.50592,24.1847893 32.32,25.35 L28.51,49.25 C28.9388723,49.1712007 29.3739499,49.1310397 29.81,49.13 L38.31,49.13 C42.3902625,49.1850097 46.4586097,48.676887 50.4,47.62 C59.4,45.07 65.4,39.29 68.48,30.1 C69.1037934,28.2433604 69.6114412,26.3497007 70,24.43 C69.48,24.2233333 68.9533333,24.03 68.42,23.85 Z"/>
    <path d="M76.22,28.2 C75.4558073,27.3756073 74.5886833,26.653004 73.64,26.05 C71.29,37.27 64.28,53.05 38.01,53.05 L31.5,53.05 C29.476035,53.0385119 27.7449889,54.5022641 27.42,56.5 C27.42,56.5 22.37,88 22.12,89.63 C22.0542417,90.2379801 22.2517267,90.8450473 22.6626077,91.297972 C23.0734887,91.7508966 23.6585076,92.0064034 24.27,92 L37.34,92 C39.1066482,92.0107172 40.6215075,90.741282 40.92,89 L44.09,69.49 C44.3884925,67.748718 45.9033518,66.4792828 47.67,66.49 L49.92,66.49 C64.52,66.49 75.92,60.63 79.29,43.7 C79.39,43.2 79.48,42.7 79.56,42.18 C80.25,36.46 79.32,31.69 76.22,28.2 Z"/>
  </g>
</svg>
