<svg xmlns="http://www.w3.org/2000/svg" width="2398" height="1750" fill="none" viewBox="0 0 2398 1750"><path fill="#000" d="M1067.35 279.216C1137.6 206.05 1235.39 160.67 1343.54 160.67C1487.32 160.67 1612.75 240.815 1679.55 359.792C1737.6 333.865 1801.86 319.441 1869.46 319.441C2128.77 319.441 2339 531.437 2339 792.932C2339 1054.46 2128.77 1266.45 1869.46 1266.45C1838.4 1266.47 1807.42 1263.39 1776.97 1257.24C1718.15 1362.14 1606.05 1433.01 1477.39 1433.01C1423.53 1433.01 1372.58 1420.57 1327.22 1398.46C1267.59 1538.68 1128.66 1637 966.736 1637C798.112 1637 654.401 1530.34 599.238 1380.75C575.132 1385.86 550.156 1388.53 524.528 1388.53C323.761 1388.53 161 1224.15 161 1021.34C161 885.423 234.128 766.754 342.779 703.265C320.41 651.811 307.968 595.02 307.968 535.312C307.968 302.072 497.38 113 731.004 113C868.168 113 990.068 178.196 1067.35 279.216Z"/><path fill="#fff" d="M476.492 903.388C475.127 906.949 476.989 907.693 477.423 908.311C481.516 911.282 485.675 913.421 489.862 915.803C512.071 927.565 533.042 931 554.972 931C599.639 931 627.369 907.288 627.369 869.117V868.375C627.369 833.081 596.073 820.266 566.697 811.01L562.882 809.772C540.734 802.589 521.627 796.4 521.627 781.849V781.077C521.627 768.631 532.794 759.466 550.103 759.466C569.334 759.466 592.164 765.844 606.867 773.954C606.867 773.954 611.178 776.741 612.761 772.562C613.628 770.332 621.074 750.334 621.85 748.167C622.687 745.813 621.198 744.08 619.679 743.151C602.897 732.966 579.694 726 555.687 726L551.221 726.03C510.338 726.03 481.802 750.673 481.802 785.995V786.739C481.802 823.98 513.285 836.053 542.785 844.474L547.531 845.929C569.027 852.523 587.546 858.188 587.546 873.296V874.04C587.546 887.847 575.512 898.123 556.093 898.123C548.555 898.123 524.515 897.969 498.553 881.59C495.418 879.763 493.589 878.434 491.17 876.979C489.899 876.174 486.704 874.779 485.309 878.991L476.492 903.388V903.388ZM1130.4 903.388C1129.03 906.949 1130.9 907.693 1131.33 908.311C1135.42 911.282 1139.58 913.421 1143.77 915.803C1165.98 927.565 1186.95 931 1208.88 931C1253.54 931 1281.28 907.288 1281.28 869.117V868.375C1281.28 833.081 1249.98 820.266 1220.6 811.01L1216.79 809.772C1194.64 802.589 1175.53 796.4 1175.53 781.849V781.077C1175.53 768.631 1186.7 759.466 1204.01 759.466C1223.24 759.466 1246.07 765.844 1260.77 773.954C1260.77 773.954 1265.08 776.741 1266.66 772.562C1267.53 770.332 1274.98 750.334 1275.75 748.167C1276.59 745.813 1275.1 744.08 1273.58 743.151C1256.8 732.966 1233.6 726 1209.59 726L1205.12 726.03C1164.24 726.03 1135.7 750.673 1135.7 785.995V786.739C1135.7 823.98 1167.19 836.053 1196.69 844.474L1201.43 845.929C1222.93 852.523 1241.48 858.188 1241.48 873.296V874.04C1241.48 887.847 1229.41 898.123 1209.99 898.123C1202.46 898.123 1178.42 897.969 1152.46 881.59C1149.32 879.763 1147.46 878.495 1145.11 876.979C1144.3 876.452 1140.51 874.997 1139.21 878.991L1130.4 903.388V903.388ZM1576.8 828.62C1576.8 850.197 1572.77 867.191 1564.83 879.204C1556.98 891.092 1545.1 896.881 1528.54 896.881C1511.95 896.881 1500.13 891.123 1492.4 879.204C1484.59 867.224 1480.62 850.197 1480.62 828.62C1480.62 807.075 1484.59 790.109 1492.4 778.22C1500.13 766.458 1511.95 760.73 1528.54 760.73C1545.11 760.73 1556.98 766.458 1564.86 778.22C1572.77 790.107 1576.8 807.072 1576.8 828.62V828.62ZM1614.09 788.623C1610.43 776.269 1604.72 765.372 1597.12 756.303C1589.52 747.201 1579.91 739.896 1568.49 734.571C1557.11 729.278 1543.65 726.585 1528.54 726.585C1513.4 726.585 1499.94 729.278 1488.56 734.571C1477.14 739.896 1467.53 747.204 1459.9 756.303C1452.33 765.405 1446.62 776.302 1442.93 788.623C1439.3 800.912 1437.47 814.347 1437.47 828.62C1437.47 842.892 1439.3 856.358 1442.93 868.616C1446.62 880.938 1452.3 891.836 1459.93 900.936C1467.53 910.038 1477.18 917.312 1488.56 922.481C1499.97 927.652 1513.4 930.282 1528.54 930.282C1543.65 930.282 1557.08 927.652 1568.49 922.481C1579.88 917.312 1589.52 910.036 1597.13 900.936C1604.72 891.865 1610.43 880.968 1614.09 868.616C1617.76 856.328 1619.58 842.86 1619.58 828.62C1619.58 814.38 1617.75 800.912 1614.09 788.623V788.623ZM1920.27 891.119C1919.03 887.497 1915.52 888.858 1915.52 888.858C1910.09 890.934 1904.32 892.852 1898.18 893.812C1891.95 894.769 1885.09 895.267 1877.74 895.267C1859.69 895.267 1845.36 889.911 1835.09 879.324C1824.79 868.736 1819.02 851.618 1819.08 828.461C1819.15 807.379 1824.23 791.527 1833.38 779.456C1842.47 767.446 1856.31 761.283 1874.76 761.283C1890.15 761.283 1901.88 763.047 1914.16 766.917C1914.16 766.917 1917.1 768.185 1918.5 764.348C1921.75 755.307 1924.17 748.837 1927.65 738.9C1928.64 736.083 1926.22 734.876 1925.35 734.534C1920.51 732.646 1909.1 729.583 1900.48 728.282C1892.41 727.044 1882.98 726.394 1872.5 726.394C1856.83 726.394 1842.87 729.056 1830.93 734.382C1819.02 739.675 1808.91 746.979 1800.91 756.083C1792.9 765.185 1786.82 776.08 1782.76 788.401C1778.73 800.69 1776.68 814.188 1776.68 828.461C1776.68 859.325 1785.03 884.275 1801.5 902.542C1818 920.869 1842.78 930.186 1875.11 930.186C1894.21 930.186 1913.82 926.319 1927.9 920.776C1927.9 920.776 1930.6 919.475 1929.42 916.351L1920.27 891.119V891.119ZM1985.5 807.949C1987.27 795.969 1990.59 785.999 1995.71 778.231C2003.43 766.436 2015.22 759.967 2031.79 759.967C2048.35 759.967 2059.3 766.467 2067.15 778.231C2072.36 785.999 2074.62 796.404 2075.52 807.949H1985.5ZM2111.04 781.603C2107.87 769.684 2100.03 757.641 2094.88 752.131C2086.75 743.401 2078.81 737.303 2070.93 733.897C2060.63 729.5 2048.29 726.592 2034.76 726.592C2019.01 726.592 2004.71 729.224 1993.1 734.671C1981.47 740.12 1971.7 747.552 1964.04 756.808C1956.38 766.032 1950.61 777.022 1946.95 789.497C1943.26 801.912 1941.4 815.441 1941.4 829.71C1941.4 844.23 1943.32 857.759 1947.13 869.924C1950.98 882.184 1957.12 892.987 1965.44 901.932C1973.72 910.943 1984.39 918.002 1997.17 922.921C2009.86 927.813 2025.27 930.352 2042.98 930.319C2079.43 930.195 2098.63 922.085 2106.54 917.719C2107.94 916.947 2109.27 915.585 2107.59 911.685L2099.34 888.619C2098.11 885.184 2094.6 886.452 2094.6 886.452C2085.57 889.796 2072.73 895.802 2042.8 895.741C2023.22 895.711 2008.7 889.953 1999.62 880.942C1990.28 871.718 1985.72 858.157 1984.91 839.027L2111.13 839.151C2111.13 839.151 2114.45 839.09 2114.79 835.868C2114.92 834.511 2119.14 809.992 2111.04 781.603V781.603ZM974.698 807.949C976.497 795.969 979.786 785.999 984.904 778.231C992.626 766.436 1004.41 759.967 1020.98 759.967C1037.54 759.967 1048.49 766.467 1056.37 778.231C1061.55 785.999 1063.81 796.404 1064.71 807.949H974.698V807.949ZM1100.2 781.603C1097.04 769.684 1089.22 757.641 1084.07 752.131C1075.94 743.401 1068 737.303 1060.13 733.897C1049.83 729.5 1037.48 726.592 1023.96 726.592C1008.23 726.592 993.899 729.224 982.299 734.671C970.668 740.12 960.897 747.552 953.235 756.808C945.573 766.032 939.804 777.022 936.144 789.497C932.484 801.912 930.592 815.441 930.592 829.71C930.592 844.23 932.515 857.759 936.331 869.924C940.178 882.184 946.321 892.987 954.632 901.932C962.915 910.943 973.585 918.002 986.364 922.921C999.052 927.813 1014.47 930.352 1032.18 930.319C1068.63 930.195 1087.83 922.085 1095.74 917.719C1097.13 916.947 1098.47 915.585 1096.79 911.685L1088.57 888.619C1087.3 885.184 1083.8 886.452 1083.8 886.452C1074.77 889.796 1061.96 895.802 1031.96 895.741C1012.42 895.711 997.906 889.953 988.816 880.942C979.479 871.718 974.921 858.157 974.112 839.027L1100.33 839.151C1100.33 839.151 1103.65 839.09 1103.99 835.868C1104.11 834.511 1108.33 809.992 1100.2 781.603V781.603ZM701.884 890.429C696.952 886.496 696.269 885.506 694.595 882.967C692.113 879.097 690.842 873.587 690.842 866.591C690.842 855.507 694.502 847.552 702.102 842.196C702.011 842.229 712.959 832.755 738.704 833.094C756.787 833.342 772.947 836.005 772.947 836.005V893.277H772.978C772.978 893.277 756.941 896.711 738.889 897.795C713.206 899.344 701.791 890.399 701.884 890.429V890.429ZM752.103 801.921C746.985 801.549 740.345 801.332 732.405 801.332C721.58 801.332 711.126 802.693 701.324 805.326C691.461 807.956 682.59 812.076 674.958 817.521C667.339 822.949 661.076 830.057 656.658 838.294C652.191 846.591 649.927 856.373 649.927 867.333C649.927 878.477 651.849 888.167 655.696 896.094C659.544 904.049 665.095 910.673 672.166 915.783C679.176 920.891 687.832 924.635 697.88 926.895C707.776 929.155 719.004 930.299 731.289 930.299C744.223 930.299 757.127 929.249 769.627 927.11C782.004 925.005 797.203 921.939 801.421 920.982C804.378 920.271 807.325 919.518 810.261 918.722C813.396 917.95 813.147 914.604 813.147 914.604L813.084 799.413C813.084 774.15 806.323 755.42 793.016 743.812C779.77 732.235 760.259 726.381 735.042 726.381C725.58 726.381 710.35 727.684 701.23 729.509C701.23 729.509 673.655 734.834 662.301 743.688C662.301 743.688 659.82 745.237 661.185 748.705L670.119 772.666C671.235 775.762 674.246 774.709 674.246 774.709C674.246 774.709 675.207 774.337 676.325 773.687C700.614 760.5 731.321 760.902 731.321 760.902C744.971 760.902 755.455 763.626 762.526 769.042C769.412 774.305 772.917 782.26 772.917 799.039V804.364C762.059 802.817 752.103 801.921 752.103 801.921V801.921ZM1770.09 737.016C1771.05 734.166 1769.03 732.805 1768.19 732.496C1766.06 731.66 1755.32 729.4 1747.04 728.874C1731.19 727.914 1722.38 730.577 1714.5 734.106C1706.68 737.634 1698 743.329 1693.16 749.801V734.477C1693.16 732.341 1691.64 730.638 1689.53 730.638H1657.18C1655.07 730.638 1653.55 732.339 1653.55 734.477V922.357C1653.55 924.463 1655.29 926.197 1657.4 926.197H1690.56C1691.57 926.191 1692.54 925.784 1693.26 925.064C1693.97 924.344 1694.37 923.371 1694.37 922.357V828.496C1694.37 815.896 1695.77 803.329 1698.56 795.434C1701.29 787.631 1705.01 781.379 1709.6 776.889C1714.22 772.432 1719.46 769.305 1725.2 767.541C1731.06 765.744 1737.55 765.157 1742.14 765.157C1748.75 765.157 1756.01 766.858 1756.01 766.858C1758.42 767.137 1759.79 765.651 1760.59 763.454C1762.77 757.695 1768.91 740.451 1770.09 737.016"/><path fill="#fff" d="M1459.44 649.286C1455.4 648.044 1451.73 647.204 1446.95 646.305C1442.1 645.436 1436.33 645 1429.77 645C1406.91 645 1388.89 651.46 1376.25 664.192C1363.66 676.865 1355.12 696.151 1350.83 721.526L1349.28 730.065H1320.58C1320.58 730.065 1317.1 729.941 1316.35 733.732L1311.66 760.036C1311.32 762.522 1312.41 764.104 1315.76 764.104H1343.69L1315.36 922.247C1313.15 934.981 1310.6 945.448 1307.78 953.396C1305.01 961.225 1302.31 967.093 1298.96 971.379C1295.72 975.48 1292.68 978.522 1287.4 980.292C1283.05 981.752 1278.02 982.435 1272.52 982.435C1269.47 982.435 1265.41 981.935 1262.39 981.316C1259.41 980.724 1257.82 980.074 1255.56 979.109C1255.56 979.109 1252.3 977.87 1250.99 981.13C1249.96 983.832 1242.51 1004.3 1241.61 1006.81C1240.74 1009.33 1241.98 1011.29 1243.56 1011.88C1247.29 1013.18 1250.06 1014.05 1255.12 1015.26C1262.14 1016.91 1268.07 1017 1273.63 1017C1285.25 1017 1295.88 1015.35 1304.67 1012.19C1313.49 1008.99 1321.19 1003.43 1328.03 995.914C1335.39 987.776 1340.02 979.266 1344.43 967.621C1348.81 956.129 1352.57 941.843 1355.55 925.198L1384.04 764.104H1425.67C1425.67 764.104 1429.17 764.229 1429.89 760.409L1434.61 734.136C1434.92 731.621 1433.87 730.068 1430.48 730.068H1390.06C1390.28 729.168 1392.11 714.941 1396.74 701.559C1398.73 695.876 1402.46 691.247 1405.6 688.078C1408.71 684.973 1412.28 682.768 1416.19 681.494C1420.2 680.189 1424.77 679.569 1429.77 679.569C1433.56 679.569 1437.32 680.003 1440.14 680.593C1444.06 681.433 1445.58 681.867 1446.61 682.179C1450.74 683.421 1451.3 682.21 1452.11 680.224L1461.77 653.701C1462.76 650.838 1460.31 649.627 1459.44 649.286V649.286ZM894.757 922.59C894.757 924.702 893.236 926.411 891.123 926.411H857.604C855.491 926.411 854 924.702 854 922.59V652.889C854 650.779 855.491 649.07 857.604 649.07H891.123C893.236 649.07 894.757 650.779 894.757 652.889V922.59Z"/></svg>