<svg xmlns="http://www.w3.org/2000/svg" width="447" height="128" viewBox="0 0 447 128"><g><g transform="translate(126 24)"><path d="M28.3 46.9C24.5 44.8 22.5 43.1 22.5 40.7 22.5 37.6 25.2 35.7 29.5 35.7 34.5 35.7 38.9 37.8 38.9 37.8L42.4 27.1C42.4 27.1 39.2 24.6 29.7 24.6 16.5 24.6 7.3 32.2 7.3 42.8 7.3 48.8 11.6 53.4 17.3 56.7 21.9 59.3 23.5 61.2 23.5 63.9 23.5 66.8 21.2 69.1 16.9 69.1 10.5 69.1 4.5 65.8 4.5 65.8L.8 76.5C.8 76.5 6.4 80.2 15.7 80.2 29.3 80.2 39 73.5 39 61.5 39.2 54.9 34.2 50.3 28.3 46.9zM82.5 24.4C75.8 24.4 70.6 27.6 66.5 32.4L66.3 32.3 72.1 1.9 57 1.9 42.3 79.2 57.4 79.2 62.4 52.8C64.4 42.8 69.5 36.7 74.3 36.7 77.7 36.7 79 39 79 42.3 79 44.4 78.8 46.9 78.3 49L72.6 79.3 87.7 79.3 93.6 48.1C94.3 44.8 94.7 40.9 94.7 38.2 94.8 29.5 90.3 24.4 82.5 24.4zM129 24.4C110.8 24.4 98.7 40.8 98.7 59.1 98.7 70.8 105.9 80.3 119.5 80.3 137.4 80.3 149.4 64.3 149.4 45.6 149.5 34.7 143.2 24.4 129 24.4zM121.6 68.6C116.4 68.6 114.3 64.2 114.3 58.7 114.3 50 118.8 35.9 127 35.9 132.4 35.9 134.1 40.5 134.1 45 134.1 54.4 129.6 68.6 121.6 68.6zM188.2 24.4C178 24.4 172.2 33.4 172.2 33.4L172 33.4 172.9 25.3 159.5 25.3C158.8 30.8 157.6 39.1 156.4 45.4L145.9 100.8 161 100.8 165.2 78.4 165.5 78.4C165.5 78.4 168.6 80.4 174.4 80.4 192.2 80.4 203.8 62.2 203.8 43.8 203.8 33.5 199.3 24.4 188.2 24.4zM173.8 68.9C169.9 68.9 167.6 66.7 167.6 66.7L170.1 52.6C171.9 43.2 176.8 36.9 182 36.9 186.6 36.9 188 41.2 188 45.2 188 54.9 182.2 68.9 173.8 68.9zM225.4 2.6C220.6 2.6 216.7 6.4 216.7 11.4 216.7 15.9 219.5 19 223.8 19L224 19C228.7 19 232.8 15.8 232.9 10.2 233 5.8 230 2.6 225.4 2.6z"/><polygon points="204.2 79.2 219.4 79.2 229.7 25.6 214.4 25.6"/><path d="M268.1 25.4L257.6 25.4 258.1 22.9C259 17.7 262 13.1 267.1 13.1 269.8 13.1 271.9 13.9 271.9 13.9L274.9 2.1C274.9 2.1 272.3.8 266.7.8 261.3.8 256 2.3 251.9 5.8 246.7 10.2 244.3 16.5 243.1 22.9L242.7 25.4 235.7 25.4 233.5 36.8 240.5 36.8 232.5 79.1 247.6 79.1 255.6 36.8 266 36.8 268.1 25.4zM304.5 25.6C304.5 25.6 295 49.4 290.8 62.4L290.6 62.4C290.3 58.2 286.9 25.6 286.9 25.6L271 25.6 280.1 74.8C280.3 75.9 280.2 76.6 279.8 77.3 278 80.7 275.1 84 271.6 86.4 268.8 88.5 265.6 89.8 263.1 90.7L267.3 103.5C270.4 102.8 276.7 100.3 282.1 95.3 289 88.8 295.4 78.9 301.9 65.3L320.4 25.6 304.5 25.6z"/></g><path d="M72 124.3L109.4 116.2C109.4 116.2 95.9 24.9 95.8 24.3 95.7 23.7 95.2 23.3 94.7 23.3 94.2 23.3 84.7 22.6 84.7 22.6 84.7 22.6 78.1 16 77.3 15.3 77.1 15.1 76.9 15 76.7 14.9L72 124.3zM75.1 14.7C75 14.7 74.8 14.8 74.7 14.8 74.6 14.8 73.2 15.2 71 15.9 68.8 9.5 64.9 3.6 58 3.6 57.8 3.6 57.6 3.6 57.4 3.6 55.4 1.1 53 0 50.9 0 34.8 0 27.1 20.1 24.7 30.3 18.5 32.2 14 33.6 13.5 33.8 10 34.9 9.9 35 9.5 38.3 9.1 40.7 0 111.2 0 111.2L70.3 124.4 75.1 14.7zM56.8 19.6C56.8 19.8 56.8 20.1 56.8 20.3 52.9 21.5 48.6 22.8 44.4 24.1 46.8 14.9 51.3 10.4 55.2 8.7 56.2 11.3 56.8 14.8 56.8 19.6zM50.4 4.3C51.1 4.3 51.8 4.5 52.5 5 47.4 7.4 41.8 13.5 39.5 25.7 36.1 26.8 32.8 27.8 29.7 28.7 32.4 19.4 38.9 4.3 50.4 4.3zM53.2 58.6C53.2 58.6 49 56.4 44 56.4 36.5 56.4 36.2 61.1 36.2 62.3 36.2 68.7 53 71.2 53 86.3 53 98.2 45.5 105.8 35.3 105.8 23.1 105.8 16.9 98.2 16.9 98.2L20.2 87.4C20.2 87.4 26.6 92.9 32 92.9 35.5 92.9 37 90.1 37 88.1 37 79.7 23.2 79.3 23.2 65.5 23.2 53.9 31.5 42.6 48.4 42.6 54.9 42.6 58.1 44.5 58.1 44.5L53.2 58.6zM59.6 8C63.2 8.4 65.5 12.5 67 17.1 65.2 17.7 63.2 18.3 61 19 61 18.6 61 18.2 61 17.7 61 13.8 60.5 10.6 59.6 8z"/></g></svg>